<?xml version="1.0" encoding="utf-8"?>
<!-- Generator: Adobe Illustrator 27.5.0, SVG Export Plug-In . SVG Version: 6.00 Build 0)  -->
<svg version="1.1" id="Layer_1" xmlns="http://www.w3.org/2000/svg" xmlns:xlink="http://www.w3.org/1999/xlink" x="0px" y="0px"
	 viewBox="0 0 3000 3000" style="enable-background:new 0 0 3000 3000;" xml:space="preserve">
<rect style="fill:#FFFFFF;" width="3000" height="3000"/>
<path style="fill:#111111;" d="M2584.873,931.635c9.059-8.688,17.554-19.06,20.125-31.611c1.611-7.866-1.133-16.65-9.267-18.917
	c-5.837-1.626-11.903,0.803-17.618-2.068c-5.645-2.836-9.311-7.921-15.328-10.413c-4.458-1.846-10.037-0.811-14.594-0.011
	c-3.043,0.535-5.892,1.103-9.002,1.307c-11.974,0.789-2.124-12.039-0.875-13.87c3.064-4.491,5.563-15.985-2.501-17.443
	c-3.403-0.615-6.346-0.182-9.721,0.529c-2.56,0.54-4.91,1.121-7.549,1.248c-4.872,0.233-4.747-11.292-4.772-13.944
	c-0.115-12.016,8.524-22.861-0.614-33.393c-7.414-8.544-20.48,2.43-28.879,0.784c-11.282-2.211-18.627-7.429-25.889,4.524
	c-2.611,4.297-8.617,4.092-11.403,8.174c-3.031,4.441-3.524,8.463-3.607,13.803c-0.215,13.751-24.652,11.555-35.331,14.9
	c-4.706,1.473-7.67,3.011-7.951-3.111c-0.186-4.073,0.478-8.166,0.483-12.241c0.001-1.357-0.77-2.995-2.062-3.594
	c-8.815-4.089-19.48-3.692-27.108,3.076c-10.485,9.304-7.32,23.093-16.286,33.32c-11.55,13.176-30.434,22.357-44.506,32.721
	c-12.026,8.857-20.983,21.115-33.927,28.839c-7.042,4.202-18.398,1.138-21.059,11.468c-1.632,6.334-0.751,13.141-3.594,19.163
	c-2.784,5.898-13.781,9.822-19.322,12.653c-8.461,4.323-15.462,9.104-18.74,18.325c-1.723,4.848-0.627,10.453,0.338,15.309
	c0.727,3.651,2.348,7.291,3.513,10.819c2.368,7.167,0.922,14.219-0.306,21.424c-5.032,29.524,31.813,14.256,48.356,16.997
	c0.737,2.02,1.476,4.04,2.213,6.06c-0.923,0.442-1.86,0.848-2.805,1.232c-0.413-0.021-0.821-0.026-1.237-0.056
	c-1.699-0.125-2.853,0.63-3.47,1.728c-3.629,1.232-7.157,2.783-10.708,4.217c-8.434,3.402-16.913,6.59-25.602,9.291
	c-8.35,2.596-17.022,3.447-25.445,5.664c-7.792,2.052-15.122,6.335-22.092,10.224c-16.582,9.251-32.674,18.404-51.884,12.198
	c-14.05-4.539-23.934-2.309-37.378,2.962c-8.855,3.472-16.562,3.331-25.665,0.674c-5.543-1.618-11.319-3.649-17.187-2.826
	c-9.663,1.356-16.995,4.695-26.617,0.306c-7.525-3.432-13.996-9.382-20.487-14.385c-6.07-4.678-22.696-10.756-17.861-21.788
	c3.548-8.095,14.423-13.788,21.561-18.34c9.332-5.952,17.488-13.752,15.053-25.894c-5.503-27.435-34.305-22.894-55.554-17.748
	c-6.021,1.458-11.708,4.949-17.196,7.68c-7.487,3.726-14.436,4.238-22.589,3.986c-10.375-0.32-14.01,7.571-16.456,16.382
	c-3.806,13.711-10.053,28.852-7.768,43.331c1.584,10.031,6.567,20.506,4.911,30.791c-1.325,8.227-9.473,17.33-14.082,24.071
	c-3.286,4.804-7.181,9.374-9.625,14.706c-1.086,0.696-1.785,1.851-1.551,3.339c-4.102,6.751-14.09,4.786-21.359,3.569
	c-15.695-2.626-30.114-10.816-45.481-14.799c-15.496-4.016-32.287-1.56-48.108-2.147c-7.656-0.283-14.908-4.004-22.643-4.612
	c-12.44-0.979-21.172-6.659-31.644-12.596c-14.123-8.008-30.564-10.073-44.629-18.147c-6.416-3.684-11.938-7.878-18.841-10.736
	c-8.162-3.38-17.375-4.241-26.046-5.414c-11.039-1.495-22.106-3.38-33.097-5.54c-0.506-0.21-1.065-0.326-1.644-0.332
	c-6.024-1.199-12.026-2.474-17.984-3.818c-18.317-4.132-34.748-12.813-52.612-18.188c-8.335-2.507-15.851-3.182-23.679-7.507
	c-6.165-3.406-11.693-8.077-17.373-12.208c-12.703-9.238-23.583-10.446-38.793-11.241c-16.327-0.852-28.701-21.369-40.462-30.768
	c-12.948-10.347-27.674-13.692-43.373-17.404c-7.677-1.814-14.853-4.77-21.826-8.42c-4.103-2.148-16.812-6.298-17.306-11.76
	c-0.541-5.97,5.044-13.328,7.318-18.727c4.043-9.602,7.281-18.888,14.057-26.995c10.995-13.153,19.985-27.529,30.034-41.389
	c5.468-7.542,19.125-21.093,11.95-31.653c-6.68-9.83-19.031-18.419-29.217-24.516c-4.67-2.795-9.869-3.874-15.196-4.434
	c-10.054-1.056-16.679,4.541-19.126-9.541c-2.029-11.673-10.891-15.805-21.3-18.155c-15.318-3.457-23.715-20.107-37.785-26.712
	c-6.148-2.885-12.685-4.893-18.07-9.191c-6.922-5.522-3.787-22.529-4.525-30.6c-1.361-14.884-13.822-25.558-17.828-39.703
	c-2.686-9.48-7.806-20.561-6.63-30.617c0.407-0.669,0.599-1.446,0.448-2.278c3.332-8.171,28.434,10.747,33.361,12.029
	c23.896,6.214,29.765-25.696,28.449-41.856c-0.954-11.71-6.145-17.554-15.615-23.804c-11.147-7.357-24.323-22.922-28.665-35.524
	c-2.549-7.4-2.478-16.03-2.464-23.776c0.023-12.042,5.788-16.815,15.914-21.117c11.759-4.996,20.488-13.462,25.352-25.393
	c3.718-9.119,6.294-17.869,12.826-25.504c6.383-7.461,13.075-14.66,19.626-21.974c8.593-9.595,18.437-18.375,19.399-31.922
	c0.093-1.312-0.832-3.049-2.062-3.596c-14.935-6.623-29.164-9.188-40.69-21.781c-8.423-9.201-15.833-19.076-28.86-20.775
	c-11.807-1.54-24.567,8.723-33.649,14.69c-15.702,10.314-33.441,15.951-51.834,18.991c-13.758,2.274-19.37-3.093-27.422-13.702
	c-4.501-5.931-9.697-11.263-14.847-16.622c-9.33-9.704-16.634-22.6-30.146-26.684c-9.31-2.813-17.082,0.79-25.531-6.545
	c-3.591-3.118-6.829-5.633-11.241-7.434c-13.401-5.469-27.211,1.421-30.002-18.077c-1.647-11.506-10.046-18.529-18.022-26.203
	c-5.99-5.764-13.493-14.131-22.257-15.023c-3.419-0.348-6.615,2.845-8.701,5.048c-1.463,1.545-2.653,3.489-3.883,5.215
	c-4.989,7.004-11.917,3.064-17.271,1.186c-7.219-2.534-31.94-11.602-38.675-4.867c-5.447,5.447-10.003,10.829-16.395,15.335
	c-5.645,3.98-15.064-2.001-20.949-2.555c-11.653-1.096-17.188,5.573-19.281,16.329c-1.513,7.775-15.014-1.522-18.694-1.464
	c-4.121,0.065-6.538,1.083-9.571,3.791c-3.536,3.158-4.968,9.077-7.128,13.159c-3.603,6.81-14.807,10.865-20.622,15.931
	c-4.167,3.63-5.009,9.243-4.913,14.402c0.157,8.455,1.414,16.95,1.591,25.48c0.047,2.281,1.858,4.147,4.163,4.164
	c6.844,0.048,21.399-3.631,27.209,1.053c4.893,3.947,7.415,12.983,10.898,18.163c2.532,3.765,6.396,6.311,10.58,7.902
	c5.121,1.948,8.115,3.337,9.253,8.89c0.918,4.478,2.275,7.799,5.092,11.475c3.486,4.548,8.85,7.871,13.451,11.173
	c3.288,2.359,12.427,6.913,4.539,12.454c-2.493,1.751-5.498,2.999-8.149,4.5c-14.884,8.42-0.513,24.278-8.737,34.35
	c-3.993,4.891-8.906,7.746-12.068,13.487c-2.612,4.745-2.969,10.55-3.33,15.835c-0.563,8.242,0.057,16.107-1.665,24.293
	c-1.727,8.211-3.612,16.288-4.578,24.634c-3.676,31.777,32.309,39.021,43.719,63.097c3.273,6.908,8.656,19.057,18.141,18.766
	c6.277-0.192,12.189-2.286,18.435-2.749c12.957-0.961,19.302,5.238,23.002,17.315c3.221,10.516-0.991,12.173-9.906,14.724
	c-5.797,1.659-11.318,3.835-16.655,6.624c-11.752,6.137-19.079,18.001-21.303,30.737c-2.651,15.177,1.542,30.673-0.865,45.953
	c-2.592,16.455-14.769,27.48-27.217,37.238c-9.727,7.625-18.94,15.083-22.92,27.172c-3.374,10.247,0.767,18.226-11.431,25.003
	c-7.293,4.053-13.366,8.322-19.649,13.883c-11.285,9.989-17.023,24.029-28.321,33.781c-11.955,10.318-8.073,26.631-18.497,37.908
	c-10.906,11.8-24.502,17.513-39.015,23.201c-13.027,5.107-18.957,17.856-23.187,30.275c-5.75,16.884-12.554,35.094-28.946,44.565
	c-14.158,8.18-34.369,2.326-49.85,5.028c-6.581,1.148-11.041,3.152-16.404,7.117c-8.217,6.072-8.617,0.18-11.808-6.75
	c-4.555-9.888-15.841-12.011-25.429-9.212c-11.556,3.374-22.606,16.782-30.312,25.244c-10.909,11.977-18.885,26.154-28.957,38.766
	c-6.273,7.854-12.594,15.967-10.116,26.437c2.305,9.742,18.395,13.731,26.304,16.725c11.707,4.432,17.426,9.885,17.317,23.128
	c-0.062,7.394-1.143,15.018-1.826,22.385c-1.234,13.283,0.577,23.852,12.221,31.809c7.467,5.102,18.796,9.71,19.656,19.94
	c0.469,5.586,0.363,10.014,2.359,15.387c1.327,3.571,4.435,6.488,7.42,8.686c3.615,2.662,16.473,7.961,16.57,12.199
	c0.163,7.137,2.638,14.319,3.434,21.386c1.107,9.832-1.041,21.171-2.539,30.841c-1.387,8.944-13.341,0.59-17.671-0.697
	c-4.616-1.373-8.867-1.49-13.432,0.12c-8.167,2.882-11.562,13.803-16.867,19.756c-7.548,8.468-16.011,3.837-23.277-1.984
	c-9.789-7.842-21.32-21.631-35.502-18.891c-8.395,1.622-13.769,7.139-18.221,14.127c-4.269,6.701-6.574,16.033-16.123,17.092
	c-6.425,0.712-11.594-1.273-17.859,1.329c-8.291,3.444-10.514,14.291-13.218,21.771c-4.707,13.02-21.38,8.452-28.181,19.398
	c-8.564,13.781-8.803,38.108,6.152,47.996c23.047,15.239,44.563,24.985,72.784,20.603c15.05-2.337,29.713-12.48,44.721-7.673
	c4.716,1.511,10.531,3.347,15.521,1.974c0.206-0.056,0.398-0.131,0.587-0.209c-9.122,16.834-37.976,22.34-54.821,22.922
	c-11.607,0.401-36.641-1.16-41.462,13.248c-2.658,7.941,1.455,15.798,5.921,22.224c4.968,7.151,8.443,10.509,6.732,20.113
	c-0.741,4.156-3.335,9.457-1.691,13.757c4.56,11.936,17.743,16.709,24.409,27.245c3.58,5.658,4.721,12.541,8.276,18.285
	c3.477,5.619,10.254,9.328,15.495,13.035c12.933,9.144,12.916,23.718,22.029,35.073c3.54,4.411,7.053,6.393,12.364,8.11
	c9.807,3.17,15.634,9.045,24.031,14.441c9.998,6.425,20.431,1.61,28.966-4.625c5.811-4.245,10.968-9.166,17.099-12.993
	c8.412-5.25,18.065-3.823,27.375-3.116c10.593,0.805,19.369-1.201,25.526-10.187c4.73-6.903,5.973-14.12,13.121-19.521
	c4.212-3.183,8.065-6.871,11.058-11.282c13.216-19.475-11.804-54.782,10.694-68.861c9.188-5.75,16.162,2.435,16.841,10.74
	c0.28,3.429-2.808,7.853-4.413,10.885c-1.746,3.296-2.895,7.494-2.177,11.223c0.944,4.904,3.315,8.757,5.891,12.983
	c5.211,8.548,1.745,16.454-0.56,25.178c-3.438,13.012,4.027,24.9,3.89,37.886c-0.057,5.496-0.309,10.146,2.093,15.276
	c0.621,1.325,3.631,6.847,5.516,11.935c-0.367,1.557,0.064,3.324,1.301,4.368c0.541,2.71,0.254,4.725-1.696,4.954
	c-1.946,0.228-3.381,1.122-4.015,3.057c-2.104,6.409-6.294,12.884-6.733,19.756c-0.54,8.431,2.731,15.464,4.642,23.317
	c-15.856,10.835-4.181,36.95,0.286,51.299c4.739,15.221,9.299,32.724,9.138,48.645c-0.17,16.819-8.163,28.68-0.753,45.433
	c3.776,8.535,7.809,16.499,9.533,25.763c1.756,9.438,1.635,19.226,1.342,28.776c-0.288,9.413-2.534,18.39-2.183,27.855
	c0.266,7.145,3.544,14.093,6.471,20.483c7.093,15.487,16.243,27.923,17.044,45.596c0.265,5.842,1.379,11.298,3.426,16.766
	c3.385,9.041,5.924,16.686,7.317,26.236c3.836,26.314,33.08,17.099,50.604,19.683c11.214,1.655,13.445,28.335,4.898,34.274
	c-5.825,4.048-17.346,2.63-17.677,12.15c-0.605,17.408,10.074,36.824,16.571,52.465c10.039,24.167,15.067,49.031,21.362,74.389
	c3.315,13.354,45.139,91.176,26.375,95.965c-1.899,0.485-2.907,2.174-3.057,4.014c-0.556,6.841,1.845,12.106,5.368,17.853
	c5.946,9.699,10.087,18.538,13.817,29.365c6.85,19.885,22.939,37.919,34.798,55.012c12.639,18.215,20.633,37.251,27.302,58.318
	c6.753,21.334,19.189,40.051,23.984,62.11c4.35,20.018,10.264,39.486,20.492,57.321c11.736,20.465,26.155,39.119,36.942,60.17
	c8.825,17.221,18.415,33.439,29.576,49.238c6.252,8.851,15.28,21.358,27.427,20.64c0.582,0.088,1.227,0.043,1.935-0.209
	c11.31-4.04,16.157-15.647,26.404-21.493c12.11-6.909,23.241-11.217,28.549-25.434c3.079-8.248,4.853-16.586,9.534-24.176
	c4.861-7.884,12.176-14.047,19.845-19.024c11.424-7.414,24.173-9.618,37.354-11.064c10.483-1.149,39.123-2.358,38.292-18.295
	c-0.187-3.568-3.008-5.801-5.569-7.848c-6.899-5.517-6.202-9.068-3.463-16.212c2.346-6.117,3.785-12.229,4.467-18.721
	c1.045-9.95-2.786-20.047,4.171-28.562c4.018-4.919,9.233-9.108,14.433-12.676c5.453-3.742,10.861-2.121,16.775-0.789
	c9.584,2.158,14.888-5.851,17.602-13.806c2.086-6.115,1.251-13.504,1.176-19.817c-0.109-9.376-0.28-18.751-0.329-28.127
	c-0.089-17.076,2.505-34.385-0.436-51.357c-1.629-9.4-2.903-16.832-1.084-26.31c1.003-5.228,1.699-10.333-0.089-15.433
	c-2.052-5.856-8.095-8.968-10.376-15.231c-1.592-4.366-1.716-9.652-0.83-14.182c1.733-8.855,9.403-6.443,15.107-3.888
	c24.897,11.147,31.111-44.086,29.394-57.054c-1.013-7.652-3.346-15.067-5.712-22.387c-2.242-6.938-8.421-13.562-9.362-20.657
	c-1.025-7.723,2.346-16.444,2.058-24.424c-0.117-3.278-0.674-6.578-0.859-9.863c-0.344-6.12,4.051-8.408,5.187-13.589
	c2.537-11.564,10.173-24.518,6.641-36.725c-2.687-9.286-6.081-15.958-2.413-25.667c3.221-8.53,1.956-17.594,1.719-26.479
	c-0.211-7.92,2.306-18.589,3.74-26.487c1.483-8.178,5.053-12.459,11.712-16.781c7.717-5.008,14.648-7.196,23.84-7.35
	c5.848-0.096,10.22-2.852,14.443-6.608c11.323-10.075,13.385-24.518,27.569-32.564c15.713-8.914,35.791-12.128,52.964-17.105
	c14.322-4.153,26.682-6.835,36.048-18.81c10.044-12.838,8.327-27.601,12.999-42.495c3.025-9.644,12.215-17.576,20.803-22.25
	c3.97-2.16,8.99-3.55,11.619-7.582c4.543-6.97,5.585-14.001,16.472-14.184c6.667-0.112,11.916-4.196,17.189-7.796
	c9.571-6.533,20.06-15.622,24.269-26.775c6.579-17.434,18.616-24.898,32.521-36.286c12.849-10.524,25.241-20.692,37.23-32.179
	c10.592-10.147,23.544-16.16,31.737-28.808c3.431-5.297,3.401-11.19,2.977-17.212c-0.502-7.12,15.765-16.69,20.683-19.647
	c11.385-6.844,11.355-14.216,11.28-26.694c-0.027-4.38,6.215,1.143,6.737,1.506c3.374,2.351,7.717,2.949,11.643,3.619
	c7.343,1.252,14.304-0.272,21.04-3.053c12.956-5.349,24.034-2.585,25.879-19.51c1.464-13.42,10.344-11.648,19.309-15.611
	c5.683-2.512,9.02-6.505,12.24-11.725c4.256-6.897,6.831-14.2,11.75-20.779c5.391-7.211,10.588-15.322,13.665-23.83
	c5.126-14.176-2.19-18.7-6.666-31.229c-3.533-9.89,9.095-20.309,14.934-26.472c5.733-6.05,10.555-15.504,18.613-18.584
	c7.201,12.844,20.373,11.15,32.271,3.283c6.759-4.469,12.463-10.509,17.139-17.064c0.899-1.261,2.214-6.334,3.535-11.488
	c0.574,3,1.94,5.629,4.93,7.38c8.949,5.242,20.043-5.08,26.536-9.928c8.106-6.05,7.909,14.613,16.345,15.461
	c11.782,1.186,20.073-9.889,26.098-18.462c8.208-11.679,5.342-23.398,3.334-36.739c-1.336-8.868-4.709-16.614-7.246-25.132
	c-2.87-9.636-4.66-19.367-8.053-28.888c-5.742-16.116-13.223-31.542-18.823-47.721c-2.992-8.646-5.364-17.682-5.773-26.841
	c-0.367-8.217,1.308-16.745-0.541-24.875c-3.165-13.917-13.515-20.178-23.04-29.787c-11.132-11.232-22.395-42.245-0.581-47.101
	c4.829-1.075,10.258-1.188,14.63-3.749c4.853-2.843,7.822-8.728,11.141-12.987c6.832-8.771,3.156-13.991-5.315-19.641
	c-7.031-4.692-14.973-7.062-21.656-12.458c-4.802-3.877-9.544-10.247-8.5-16.915c0.435-2.78,2.483-5.328,3.357-7.997
	c1.697-5.177,1.5-9.783,0.525-15.094c-1.271-6.914-3.443-12.013,2.185-18.592c5.305-6.205,16.045-8.162,20.857-0.681
	c5.363,8.34,11.568,11.469,21.563,10.773c9.946-0.694,17.229,3.398,23.279,11.204c3.16,4.077,6.561,7.332,11.918,7.938
	c4.399,0.498,8.674,0.314,13.074,0.119c0.327,0.336,0.711,0.601,1.136,0.795c1.378,3.431,3.99,16.591,4.607,18.16
	c2.146,5.456,5.949,7.924,6.527,14.509c0.364,4.163-0.415,8.458,1.346,12.419c3.415,7.686,10.095,15.837,16.507,21.246
	c5.428,4.579,14.608,3.07,21.005,2.89c6.062-0.17,12.231-0.509,18.243,0.532c5.125,0.888,9.997,5.066,14.292,7.768
	c6.303,3.967,12.59,5.038,19.812,3.631c4.59-0.894,9.025-3.449,13.523-4.787c7.196-2.14,16.604-0.142,23.975,0.317
	c9.864,0.613,20.036,1.277,29.896,0.605c5.136-0.349,14.107-2.059,17.073-7.12c5.717-9.76,7.58,2.196,7.749,5.817
	c0.194,4.151,0.874,8.27,1.457,12.378c1.751,12.342,4.247,24.632-5.58,34.058c-7.336,7.037-16.493,12.683-24.273,19.299
	c-20.022,17.029-36.333,38.821-57.736,54.071c-7.195,5.125-16.115,5.403-22.478,11.775c-6.646,6.655-1.964,19.137-11.169,23.701
	c-1.313,0.652-2.023,2.197-2.061,3.595c-0.675,24.728,39.787,37.998,59.063,33.329c5.205-1.261,8.783-4.99,11.9-9.044
	c4.725-6.147,7.893-8.006,15.303-9.32c4.173-0.741,6.991-1.815,10.52-4.061c6.89-4.386,11.527-12.613,17.86-17.865
	c7.344-6.089,14.362-11.929,20.919-18.686c1.82,4.867,2.307,10.131,4.936,14.833c3.795,6.79,7.943,13.377,12.831,19.445
	c4.614,5.727,9.38,11.186,12.94,17.662c4.875,8.869,3.85,19.798,4.808,29.531c0.949,9.65,5.87,19.313,15.512,22.8
	c8.25,2.985,23.688,6.132,30.754-0.936c7.132-7.132,2.133-22.75,1.256-31.267c-1.974-19.165,1.675-37.809,2.033-56.953
	c0.33-17.625-4.412-37.567-0.787-54.857c2.052-9.789,14.857-15.698,23.715-16.307c7.241-0.499,15.754,5.82,22.943,7.136
	c8.838,1.618,13.553-5.011,15.861-12.491c2.274-7.374,3.82-12.48,10.13-17.677c4.996-4.116,8.269-8.897,10.252-15.027
	c1.368-4.229,0.092-9.247-1.631-13.151c-6.283-14.233,7.687-15.62,12.029-24.447c6.506-13.225,0.637-27.74,4.483-41.523
	c2.044-7.322,0.772-15.03,1.909-22.488c1.439-9.425,7.812-17.835,13.479-25.146c9.645-12.443,13.354-24.629,13.558-40.351
	c0.108-8.385-4.94-19.831,5.611-23.276c3.668-1.198,7.92-3.272,9.749-6.927c7.841-15.67-2.232-38.86,13.078-50.125
	c8.973-6.602,19.944-2.023,23.857-14.51c1.547-4.938-1.777-11.179-3.491-15.538c-5.995-15.236,10.412-16.501,21.262-18.254
	c7.868-1.27,15.405-3.278,23.14-5.126c9.622-2.3,12.143,3.793,20.172,4.705c8.957,1.017,16.195-5.546,14.353-14.871
	c-1.158-5.864-3.582-10.934-6.395-16.185c-3.261-6.09-7.75-12.492-3.842-19.863C2578.427,936.926,2582.322,934.081,2584.873,931.635
	z M2052.142,1100.506c14.102,2.375,23.301,6.512,37.543,1.444c6.726-2.393,12.653-5.303,19.923-5.755
	c8.593-0.535,16.363,5.167,24.825,5.765c14.008,0.991,27.597-5.714,39.679-12.185c7.721-4.134,15.091-8.678,23.246-11.966
	c9.179-3.702,19.598-4.242,29.126-6.906c3.693-1.033,25.995-6.848,40.388-14.8c13.795,0.356,26.224-4.166,37.976-11.42
	c6.214-3.836,11.062-10.337,18.679-11.307c3.329-0.424,6.607-0.637,9.883-1.415c3.366-0.798,6.091-3.35,8.629-5.562
	c4.816-4.202,8.624-9.547,12.484-14.599c4.844-6.341,9.817-11.724,16.212-16.526c12.64-9.492,25.514-19.078,39.827-25.932
	c16.892-8.091,33.119-17.612,51.108-23.189c5.16-1.6,15.316-5.073,20.149-0.892c3.184,2.754,1.74,8.548,0.898,11.977
	c-1.574,6.405-4.596,12.429-7.083,18.507c-3.871,9.458-4.343,19.733-9.744,28.627c-3.156,5.196-7.72,9.248-11.714,13.758
	c-4.319,4.879-7.862,10.408-10.69,16.264c-2.999,6.212-4.881,12.692-5.772,19.252c-0.404,0.182-0.802,0.416-1.18,0.762
	c-4.733,4.324-11.234,5.804-16.761,8.835c-5.918,3.244-9.382,9.452-12.749,15.021c-7.798,12.902-22.727,8.801-33.85,16.46
	c-5.175,3.564-7.149,8.438-8.215,14.398c-1.548,8.664-5.646,12.819-12.541,17.913c-5.012,3.704-9.627,8.262-13.219,13.358
	c-4.004,5.683-5.572,12.713-9.363,18.534c-7.822,12.012-15.905,22.88-13.858,37.865c0.83,6.085,2.907,11.734,2.56,17.963
	c-0.382,6.866-6.6,11.189-10.682,16.011c-3.301,3.898-5.548,8.755-4.534,13.963c0.63,3.239,1.951,6.177,3.175,9.225
	c1.564,3.895,1.155,7.134,0.084,11.076c-2.888,10.645-11.682,17.515-21.803,20.802c-6.924,2.247-14.269,2.737-21.5,2.485
	c-6.084-0.21-11.863-2.164-17.779-2.844c2.219-9.663-0.549-20.964-1.902-30.498c-0.956-6.744-0.219-14.267-3.232-19.797
	c6.693-1.188,13.1-5.923,18.164-9.838c6.077-4.7,12.785-11.989,8.953-20.211c-3.558-7.633-13.124-10.1-20.486-12.34
	c-5.098-1.553-10.329-2.602-15.396-4.268c-5.618-1.847-10.45-5.254-14.936-9.023c-8.209-6.897-15.331-11.075-26.295-11.557
	c-15.658-0.689-31.262-1.309-46.895-2.549c-15.912-1.263-31.803-2.76-47.719-3.973c-15.605-1.188-30.762-0.287-46.359-0.165
	c-1.751,0.014-2.921,0.915-3.529,2.114c-1.405-10.677-7.387-20.353-7.111-31.259c0.153-6.079,3.525-12.02,4.987-17.848
	c1.188-4.738,0.832-9.314-0.787-13.663C2045.952,1100.157,2048.989,1099.976,2052.142,1100.506z M1910.845,1032.911
	c1.056-4.373,1.664-8.753,2.872-13.103c2.024-7.293,6.813-5.94,12.146-5.712c13.919,0.592,24.463-7.809,37.065-12.146
	c6.408-2.205,15.269-2.332,22.004-3.163c12.867-1.586,22.442,3.088,23.363,17.096c0.88,13.406-26.733,22.077-33.776,32.714
	c-3.843,5.804-5.881,12.609-3.671,18.414c-4.101,0.18-8.201,0.844-12.124,1.87c-5.639,1.476-10.5,10.326-16.628,9.485
	c-5.702-0.782-9.428-6.866-15.611-7.31c-7.08-0.507-11.552,4.692-18.093,5.967c-0.083,0.016-0.147,0.049-0.228,0.069
	c-1.446-5.679-3.137-11.33-3.626-16.774C1903.65,1050.449,1908.613,1042.156,1910.845,1032.911z M1619.269,1081.875
	c7.581,1.027,14.92,2.423,22.171,4.889c9.208,3.131,16.097,10.42,25.043,14.118c16.026,6.626,31.656,11.139,46.827,19.909
	c5.065,2.929,10.883,6.393,16.829,7.066c9.411,1.065,18.376,3.656,27.655,4.837c17.74,2.256,35.544-1.311,53.072,3.232
	c15.475,4.012,29.546,11.807,45.438,14.465c4.096,0.685,18.283,2.024,24.217-1.606c1.531,3.778,3.013,7.574,4.262,11.463
	c1.502,4.677,4.635,14.198-0.865,17.291c-9.037,5.079-16.866,10.357-15.897,21.874c0.36,4.277,1.226,9.349-0.551,13.368
	c-2.426,5.486-5.118,11.301-5.204,17.383c-0.089,6.176,2.943,11.68,5.907,16.873c1.686,2.954,3.398,5.997,3.851,9.426
	c0.54,4.079-1.918,9.036-3.408,12.713c-2.395,5.915-4.142,11.855-6.182,17.88c-1.394,4.117-4.275,6.725-7.548,9.42
	c-5.118,4.217-9.936,8.008-14.027,13.296c-4.564,5.897-8.453,11.85-14.936,15.836c-4.14,2.546-8.224,5.108-11.648,8.593
	c-4.844,4.929-8.027,11.003-13.246,15.619c-4.729,4.181-9.832,7.677-13.542,12.885c-3.399,4.776-5.189,10.838-6.318,16.512
	c-1.732,8.695-1.546,18.03,1.121,26.511c2.743,8.721,10.129,15.219,15.852,22.042c5.99,7.14,7.9,14.886,8.005,24.103
	c0.142,12.47-0.979,24.703,0.544,37.093c-4.29,0.081-8.591,0.305-12.547-1.367c-5.073-2.145-8.948-6.68-13.44-9.768
	c-4.805-3.304-10.741-4.192-16.313-2.648c-5.249,1.454-9.369,5.63-13.692,8.701c-6.245,4.437-11.524,0.781-16.907-3.225
	c-4.876-3.629-9.317-7.13-15.214-8.919c-7.617-2.311-15.963-2.05-23.815-2.817c-17.367-1.695-34.42-3.894-51.928-3.585
	c-5.194,0.092-10.278,0.688-15.443,1.154c-3.652,0.327-14.591,1.903-12.64-4.565c1.641-5.442,2.318-11.757-0.027-17.121
	c-2.534-5.793-9.086-9.883-12.609-15.128c-3.82-5.685-3.355-13.055-5.921-19.244c-2.43-5.858-7.465-8.87-12.202-12.697
	c-2.529-2.043-5.238-4.207-6.864-7.063c-1.222-2.147-0.823-5.417-0.968-7.776c-0.44-7.159-2.326-13.656-7.501-18.797
	c-5.677-5.639-13.381-8.508-17.886-15.455c-1.96-3.024-2.759-6.722-4.029-10.059c-1.07-2.81-2.514-5.301-4.222-7.685
	c4.038-12.338,3.653-25.297,8.106-37.464c2.127-5.815,3.003-11.39,1.97-17.505c-1.038-6.134-4.151-11.911-6.464-17.625
	c-2.125-5.247-3.857-10.694-2.05-16.27c2.272-7.012,10.125-6.682,14.913-10.896c4.219-3.711,5.266-9.776,6.612-14.91
	c1.289-4.921,4.336-10.733,8.511-13.82c7.782-5.752,18.449-7.847,27.125-12.002c6.868-3.291,15.822-8.895,15.161-17.666
	c-0.738-9.809-11.875-15.423-19.803-18.692c-4.848-1.999-9.809-3.814-14.197-6.739c-3.263-2.175,1.413-10.039,2.708-13.152
	c2.224-5.345,3.856-10.892,6.115-16.215c2.119-4.992,4.334-9.747,3.829-15.305c-0.556-6.137-4.165-11.273-7.164-16.444
	c-1.836-3.164-2.125-6.338-1.929-9.659C1597.029,1078.617,1608.177,1080.374,1619.269,1081.875z M1471.302,1611.665
	c-2.631,0.275-4.812,2.455-4.015,5.271c0.796,2.806,2.136,5.121,3.896,7.436c1.624,2.136,4.67,4.608,5.038,7.406
	c0.403,3.062-0.783,6.352-1.186,9.369c-0.521,3.897-0.101,7.566,0.459,11.432c1.933,13.362,12.938,22.121,19.748,32.983
	c0.753,1.199,3.425,5.379,1.971,6.314c-2.46,1.582-6.485,1.301-9.257,1.378c-8.901,0.247-17.929-0.437-26.641,1.832
	c-1.661,0.433-3.229,2.214-3.057,4.015c1.646,17.206,10.068,32.795,11.824,50.008c1.726,16.918-6.418,29.939-14.467,43.997
	c-9.13,15.944-18.963,31.341-29.049,46.685c-9.248,14.067-15.975,29.589-24.676,43.979c-9.067-0.133-17.341-3.375-20.599-13.544
	c-1.559-4.865-0.725-9.885-1.503-14.852c-0.772-4.926-2.98-8.913-6.029-12.8c-5.171-6.591-14.333-8.532-19.91-14.936
	c-4.99-5.731-7.566-13.476-11.712-19.803c-3.989-6.086-9.436-10.671-16.46-12.58c6.072-5.037,10.726-13.179,14.899-18.775
	c6.017-8.067,12.853-15.445,19.12-23.313c5.812-7.294,10.779-13.906,8.311-23.532c-2.784-10.86-9.971-20.613-15.519-30.185
	c-3.178-5.482-5.708-11.347-8.85-16.885c-3.552-6.265-4.658-12.193-3.952-19.22c1.605-15.968-7.105-31.66-8.556-47.517
	c-0.692-7.564,0.961-15.164,1.36-22.703c0.401-7.596-1.372-14.727-5.242-21.247c-4.906-8.266-12.135-9.384-20.965-8.737
	c-12.402,0.91-21.825-4.512-31.915-11.01c-10.541-6.79-21.684-8.263-33.941-5.987c-12.281,2.28-23.179,9.112-34.638,13.712
	c-5.821,2.338-11.885,3.949-18.154,4.363c-8.125,0.537-15.844-1.942-23.419-4.572c-6.987-2.427-13.856-4.984-21.172-6.245
	c-7.576-1.304-15.323-0.717-22.964-0.698c-7.292,0.018-14.634-1.121-20.89-5.091c-4.38-2.781-7.259-7.313-11.887-9.86
	c-11.776-6.482-19.982,4.027-27.652,11.332c-4.505,4.29-8.77,5.198-14.691,6.385c-5.848,1.172-10.4,3.947-14.396,8.393
	c-2.668,2.97-3.503,6.53-3.319,10.419c0.273,5.776-2.75,11.377-7.523,14.682c-10.113,7.002-25.32-2.65-33.475-8.581
	c-3.753-2.729-7.344-5.764-11.662-7.567c-4.751-1.983-9.858-1.926-14.909-1.51c-10.919,0.897-21.916,3.209-31.923-2.341
	c-6.135-3.403-11.134-8.273-16.706-12.457c-6.255-4.699-12.823-8.545-20.16-11.292c-6.968-2.609-16.393-2.099-22.185-6.891
	c-2.455-2.03-0.982-8.044-1.578-10.974c-0.77-3.792-4.794-7.714-7.801-9.84c-12.659-8.946-22.406,5.208-33.314,10.223
	c-0.135-0.349-0.283-0.684-0.403-1.048c-4.906-14.814,1.073-30.578,4.242-45.085c1.496-6.845,2.273-13.759,1.445-20.74
	c-0.638-5.376-1.293-9.786-0.32-15.185c1.387-7.696,4.556-14.935,5.85-22.697c0.841-5.052,1.149-10.177,1.266-15.307
	c0.927,0.272,1.902,0.461,2.942,0.538c6.021,0.446,12.204-1.167,17.595-3.786c9.691-4.708,13.123-15.745,15.475-25.406
	c1.68-6.902,3.074-14.406,7.629-20.097c3.96-4.948,9.573-8.004,12.418-13.894c2.397-4.962,1.379-10.135-0.863-14.897
	c-2.094-4.447-8.682-11.856-1.53-14.869c5.094-2.145,9.739-2.843,10.026-9.12c0.391-8.535-1.458-17.104-2.582-25.521
	c-0.95-7.122-0.44-13.79-0.033-20.895c0.148-2.58,0.064-5.365,1.146-7.773c1.963-4.369,7.971-0.551,10.45,1.11
	c8.807,5.899,4.061,21.144,13.777,26.77c4.858,2.812,10.166,2.471,15.193,0.295c4.955-2.145,12.515-5.663,13.538,2.167
	c2.064,15.787-5.168,31.314-5.778,46.939c-0.323,8.272,5.236,16.381,14.188,15.158c5.334-0.73,9.67-3.58,13.168-7.557
	c3.301-3.753,5.994-9.664,11.078-11.256c3.505-1.097,7.988,0.518,11.363,1.424c4.014,1.078,7.972,2.34,12.102,2.909
	c6.655,0.916,12.206-1.214,14.869-6.818c4.09,0.777,7.521,3.661,10.969,6.037c4.707,3.243,9.76,5.559,15.572,5.406
	c2.471-0.065,3.895-1.862,4.164-4.164c0.734-6.291,2.697-13.188,1.423-19.52c-0.66-3.279-2.154-6.216-3.245-9.359
	c-1.671-4.817,2.937-5.529,5.765-7.729c5.066-3.94,6.323-9.696,5.232-15.752c-1.281-7.108-7.033-12.169-9.455-18.721
	c-2.327-6.293,5.693-13.134,9.696-17.061c4.458-4.375,10.299-6.035,15.161-9.723c7.347-5.573,4.759-15.437-1.952-20.251
	c-7.256-5.204-16.763-6.707-25.306-8.515c-5.577-1.181-23.846-5.999-18.899-14.279c2.899-4.853,9.818-8.057,14.381-11.122
	c6.672-4.482,12.966-9.556,19.414-14.35c13.746-10.22,28.022-17.526,43.814-24.057c15.448-6.388,31.332-11.554,46.84-17.74
	c12.432-4.958,28.139-13.742,41.375-6.729c10.714,5.676,4.707,21.318,2.404,30.095c-3.717,14.175-5.237,28.539-10.141,42.481
	c-2.627,7.472-5.968,14.832-10.082,21.607c-3.791,6.242-9.617,11.04-13.455,17.311c-7.305,11.938-13.506,25.378-12.314,39.643
	c1.201,14.373,8.214,27.412,14.121,40.284c2.787,6.07,5.629,12.134,9.567,17.556c2.774,3.819,8.196,9.663,13.508,9.203
	c11.564-1.002,6.083-12.072,8.121-19.49c1.18-4.293,4.075-7.998,5.632-12.161c1.758-4.699,1.931-9.263,1.44-14.222
	c-0.927-9.373-3.495-18.668-6.06-27.699c-2.921-10.286-6.128-21.546-1.043-31.466c1.906-0.139,3.68,0.066,5.253,1.566
	c1.65,1.572,2.673,3.91,3.718,5.896c2.297,4.366,4.602,8.552,8.93,11.192c4.416,2.694,9.577,1.551,13.814-0.775
	c2.567-1.408,4.807-3.474,7.19-5.162c4.136-2.932,8.453-1.687,12.786,0.242c5.852,2.607,11.039,6.565,16.874,9.155
	c5.071,2.25,9.293,0.385,13.269-3.005c7.245-6.177,8.894-16.769,13.456-24.714c3.679-6.409,14.563-9.302,17.637-0.764
	c2.52,6.999,0.769,15.363,1.129,22.646c0.343,6.946,2.64,14.368,9.828,16.902c12.632,4.453,23.457-7.321,36.069-3.902
	c4.83,1.31,8.922,3.641,14.011,4.056c6.542,0.535,12.788-3.309,19.043-4.636c5.966-1.265,12.2,2.613,17.514,4.657
	c8.515,3.274,17.042,6.516,25.62,9.622c12.794,4.632,25.877,9.487,36.577,18.147c11.117,8.996,14.831,20.631,16.319,34.349
	c1.329,12.242,3.185,24.044,12.895,32.583c7.583,6.669,16.703,7.192,24.585,0.957c5.109-4.042,8.6-10.194,11.283-16.484
	c1.285,3.025,2.274,6.188,3.595,9.269c2.634,6.145,8.145,10.54,13.41,14.355c5.338,3.866,9.885,6.663,11.504,13.464
	c1.158,4.862,0.237,10.028,1.907,14.786c3.503,9.981,16.591,12.3,19.945,22.022c1.821,5.279,1.889,10.945,4.345,16.058
	c2.461,5.129,6.589,9.234,10.404,13.367c3.672,3.979,5.03,7.198,3.71,12.822c-0.401,1.711-0.799,3.289-1.029,4.788
	c-0.539,0.176-1.07,0.476-1.571,0.929c-30.174,27.255-40.281,67.292-59.179,101.95c-7.193,13.192-18.918,27.401-35.353,28.176
	c-8.421,0.397-15.319-0.941-17.971,8.781c-0.51,1.868-0.521,3.39-2.343,4.418c-1.897,1.071-3.837,2.069-5.871,2.855
	C1480.107,1610.761,1475.635,1611.212,1471.302,1611.665z M1282.542,777.868c9.742,3.798,17.128,4.142,19.275,16.501
	c0.703,4.044,2.393,8.854,5.843,11.349c3.027,2.189,5.956,3.036,9.723,2.434c10.978-1.754,18.597-0.738,27.898,5.682
	c5.983,4.129,23.281,16.336,19.34,25.606c-2.968,6.981-9.242,13.035-13.683,19.161c-5.321,7.337-10.126,15.049-15.3,22.488
	c-5.67,8.151-12.789,15.032-17.932,23.539c-6.334,10.476-11.07,23.456-15.296,34.931c-3.928,10.668,2.314,16.684,11.453,20.984
	c12.145,5.714,22.856,11.52,36.052,14.64c20.848,4.928,35.609,12.399,50.605,27.946c7.759,8.045,17.31,17.785,29.003,19.31
	c7.629,0.993,15.185,0.27,22.722,2.178c8.584,2.174,16.429,9.507,23.395,14.645c12.33,9.096,24.05,11.094,38.358,15.399
	c18.087,5.441,34.551,13.816,53.157,18.012c3.524,0.795,7.068,1.544,10.621,2.265c-0.363,3.857-0.397,7.693,0.989,11.418
	c2.248,6.043,7.476,10.887,8.079,17.527c0.469,5.156-3.271,10.761-5.071,15.403c-2.145,5.53-4.103,11.114-6.309,16.634
	c-1.607,4.019-3.292,8.473-2.329,12.842c0.936,4.249,6.91,7.031,10.341,8.707c4.656,2.272,9.585,3.932,14.294,6.082
	c3.704,1.691,10.028,5.454,10.371,10.012c0.253,3.345-4.594,6.017-6.932,7.436c-4.51,2.739-9.505,4.666-14.41,6.56
	c-8.852,3.417-17.719,6.372-23.467,14.369c-3.155,4.39-5.161,9.674-6.466,14.873c-0.804,3.207-1.627,5.878-3.757,8.457
	c-1.718,2.08-6.188,2.458-8.579,3.719c-11.187,5.904-10.621,20.18-6.951,30.196c2.008,5.48,4.665,10.679,6.344,16.286
	c2.16,7.209-0.591,13.559-2.965,20.314c-2.365,6.729-2.114,13.853-3.149,20.826c-0.833,5.606-2.904,11.232-4.881,16.532
	c-2.695,7.224-8.073,20.817-17.46,20.796c-5.445-0.012-10.356-6.155-12.732-10.356c-3.259-5.764-3.77-13.053-4.469-19.492
	c-1.379-12.705-3.916-23.628-12.166-33.742c-8.051-9.87-20.16-16.157-31.688-20.985c-14.681-6.149-29.936-10.844-44.619-16.999
	c-5.101-2.139-10.211-3.97-15.817-3.414c-6.591,0.655-12.479,4.673-19.111,4.675c-4.89,0.002-9.796-3.402-14.549-4.426
	c-7.127-1.534-13.321,0.612-19.897,3.152c-3.843,1.483-10.342,3.925-14.17,0.961c-2.457-1.903-2.769-5.558-2.964-8.415
	c-1-14.574,3.051-34.325-16.989-36.255c-9.963-0.96-16.167,7.104-19.842,15.197c-1.895,4.175-3.399,8.508-5.506,12.587
	c-1.09,2.108-2.416,3.755-4.1,5.414c-2.783,2.742-4.756,1.017-7.582-0.676c-5.922-3.547-12.097-7.117-18.706-9.197
	c-6.549-2.062-12.098-0.008-17.317,3.899c-4.567,3.42-9.219,7.117-13.318,1.154c-2.861-4.164-4.476-8.89-7.88-12.723
	c-3.629-4.083-8.681-4.346-13.749-3.701c-5.716,0.727-7.738,10.384-8.219,15.085c-1.422,13.918,4.508,27.406,7.479,40.761
	c1.361,6.122,3.144,12.812,2.272,19.124c-0.874,6.31-5.644,11.731-7.334,17.881c-0.749,2.726-0.931,5.834-0.429,8.611
	c0.086,0.477,0.606,3.199,0.549,3.189c-1.525-0.27-2.985-1.766-4.077-2.762c-5.127-4.676-8.054-12.133-10.919-18.296
	c-6.333-13.625-13.87-27.535-13.907-42.941c-0.034-14.325,10.178-29.695,19.174-40.092c19.238-22.236,21.39-52.468,28.419-79.699
	c2.574-9.975,4.115-20.694-2.89-29.203c-8.352-10.147-24.166-8.295-35.152-4.929c-6.551,2.007-12.811,4.92-19.164,7.455
	c-0.943,0.376-1.899,0.722-2.848,1.083c-0.014-1.239-0.613-2.46-2.052-3.251c-5.978-3.281-11.818-6.752-17.347-10.752
	c-6.634-4.8-10.802-10.642-15.627-17.051c-3.942-5.237-5.788-11.841-10.117-16.817c-1.468-1.687-3.156-3.156-4.669-4.804
	c-3.45-3.758-3.456-8.188-3.481-12.967c-0.03-5.883-2.365-11.263-6.159-15.696c-3.329-3.887-8.511-5.159-12.987-7.146
	c-5.043-2.239-9.904-7.54-11.547-12.821c-0.796-2.557-0.391-5.32,0.429-8.004c0.732-1.037,1.379-2.112,1.947-3.16
	c0.56-1.031,0.633-2.031,0.412-2.925c0.103-0.244,0.205-0.486,0.304-0.722c5.147-12.402,8.86-24.068,10.165-37.508
	c1.399-14.409,0.782-28.967,0.624-43.415c-0.275-25.302-1.438-53.301,11.545-75.912c4.376-7.621,9.558-14.236,12.952-22.435
	c2.91-7.029,4.269-15.833,9.924-21.287c5.275-5.087,10.221-9.802,14.064-16.151c4.457-7.364,7.282-15.612,11.379-23.173
	c17.419-32.143,58.516-21.304,87.906-17.192c5.842,4.35,13.185,6.717,19.872,9.856
	C1261.879,758.665,1268.713,772.475,1282.542,777.868z M1049.592,1004.184c-5.159-1.107-10.299-2.126-15.577-1.184
	c-12.359,2.205-22.841,12.712-36.058,8.849c-4.224-1.234-5.408-7.205-6.9-10.69c-2.613-6.104-6.532-10.666-11.634-14.88
	c-5.545-4.579-11.673-8.342-16.898-13.316c-4.962-4.724-10.935-11.032-10.778-18.253c0.119-5.498,4.527-9.935,4.656-15.67
	c0.141-6.269-4.241-12.052-7.495-17.004c-3.44-5.236-4.478-11.157-7.096-16.74c-2.792-5.955-7.102-9.534-13.337-11.49
	c-6.48-2.033-12.949-2.002-19.003-5.457c-6.468-3.692-9.131-10.817-13.626-16.371c-6.871-8.492-16.366-14.247-24.415-21.563
	c0.936,0.09,1.893,0.13,2.884,0.096c12.283-0.411,21.332-11.076,34.074-7.872c9.813,2.467,13.449,14.78,22.324,19.038
	c9.732,4.668,19.37-2.243,26.025-8.874c3.766-3.753,7.422-7.711,12.431-9.804c6.005-2.509,13.349-2.225,19.742-3.262
	c11.32-1.835,20.559-8.229,30.223-13.979c7.988-4.752,12.156-10.331,16.219-18.562c5.249-10.63,13.265-20.373,16.541-31.858
	c2.047-7.18,1.781-14.912,2.626-22.282c0.796-6.94,3.638-12.755,7.98-18.047c4.184,1.536,8.244,3.396,12.051,5.931
	c8.425,5.609,15.284,14.336,22.559,21.347c7.359,7.09,14.685,14.303,20.646,22.638c-1.943,2.5-4.139,4.886-6.702,7.131
	c-9.167,8.031-10.658,21.09-15.919,31.564c-3.157,6.284-7.825,11.726-11.222,17.902c-3.002,5.459-5.271,11.34-6.913,17.342
	c-3.27,11.948-3.379,24.636-3.769,36.926c-0.446,14.014-0.262,27.973-0.189,41.992c0.055,10.557-0.155,21.193-1.711,31.652
	c-1.402,9.434-4.762,18.035-8.448,26.77c-0.802,1.902-1.577,3.798-2.241,5.705
	C1057.865,1005.222,1054.643,1005.268,1049.592,1004.184z M1210.761,686.577c5.871,8.62,8.75,15.908,9.042,26.66
	c0.155,5.717-0.838,13.936,1.35,19.929c-21.168-3.356-43.851-7.721-63.919,0.908c-11.861,5.1-19.968,14.462-25.628,25.847
	c-3.061,6.155-5.709,12.123-8.965,17.699c-5.102-6.635-10.877-12.661-16.869-18.528c-7.249-7.1-14.232-14.869-21.924-21.459
	c-12.934-11.082-29.043-12.816-44.508-18.328c-18.766-6.689-30.351-21.343-40.297-37.811c-3.741-6.194-7.668-12.265-12.495-17.678
	c-4.242-4.756-9.376-8.673-14.684-12.228c1.095-0.679,2.15-1.434,3.143-2.306c8.474-7.438,10.218-21.971,12.179-32.262
	c1.426-7.484,3.423-14.393,8.066-20.556c4.499-5.971,9.882-10.929,16.304-14.762c11.285-6.733,24.984-7.984,37.678-5.434
	c6.934,1.392,13.067,4.064,19.054,7.771c5.589,3.46,10.85,7.162,17.048,9.487c10.797,4.051,22.784,0.324,33.915,0.301
	c9.46-0.019,16.096,10.073,22.967,15.156c9.471,7.005,20.059,6.61,31.326,7.544c4.436,0.369,8.844,1.181,12.178,4.305
	c3.521,3.296,6.135,7.736,8.856,11.775c-1.163,7.325,1.969,16.459,3.779,22.549C1201.639,666.2,1204.192,676.933,1210.761,686.577z
	 M920.863,620.119c-5.842,0.195-11.138,1.169-16.861,2.388c-10.127,2.154-13.623-9.805-16.82-16.55
	c-5.988-12.638-20.596-20.505-30.522-29.744c-15.377-14.312-10.761-30.963-6.676-49.244c3.762-16.839-2.418-35.355,12.49-47.754
	c3.089-2.57,6.369-6.08,6.774-10.316c0.827-8.63-3.93-21.163,5.376-26.428c7.255-4.105,17.414-10.643,11.658-20.471
	c-2.279-3.889-7.211-6.73-10.715-9.353c-4.567-3.421-9.109-6.42-12.639-11.025c-2.353-3.071-2.858-10.526-4.318-14.385
	c-1.353-3.578-6.287-4.485-9.497-5.701c-10.701-4.054-13.312-13.879-19.047-22.635c-6.317-9.642-20.498-6.947-31.064-6.205
	c-0.021-5.241,0.002-10.448-0.797-15.674c-2.071-13.559,5.753-17.065,15.322-23.551c4.127-2.797,7.259-6.049,9.585-10.444
	c1.34-2.533,2.363-5.229,3.697-7.773c2.943-5.613,10.552,0.588,13.678,1.652c8.476,2.885,15.025-0.496,17.597-8.973
	c4.302-14.179,12.706-9.669,22.763-6.989c4.93,1.313,9.164,0.304,13.64-1.809c5.219-2.462,10.008-7.921,14.057-11.837
	c5.771-5.584,11.694-3.708,19.697-2.085c11.238,2.28,26.038,12.561,36.872,4.672c3.003-2.188,8.062-12.93,12.788-10.381
	c5.109,2.755,9.493,7.468,13.679,11.432c4.804,4.552,9.705,8.996,13.506,14.462c3.941,5.669,2.597,14.179,6.104,20.425
	c4.089,7.282,13.68,8.658,21.075,9.604c7.596,0.973,12.57,1.866,18.579,7.222c4.181,3.728,8.81,7.147,14.563,7.788
	c10.805,1.202,18.625,0.808,26.847,9.245c5.016,5.148,9.288,10.993,14.268,16.196c6.549,6.842,12.633,13.782,18.404,21.306
	c3.307,4.31,7.705,9.856,13.346,11.203c12.454,2.975,26.652-1.017,38.655-4.399c15.623-4.401,29.208-12.644,42.739-21.306
	c7.961-5.096,17.522-10.485,26.89-5.624c6.57,3.41,11.758,10.819,16.578,16.238c10.114,11.371,22.121,15.803,36.181,20.547
	c9.316,3.143-7.678,19.219-10.12,21.92c-5.624,6.22-11.208,12.483-16.801,18.734c-4.748,5.306-9.474,10.44-13.001,16.649
	c-4.326,7.616-6.024,16.444-10.352,24.124c-7.202,12.784-21.325,14.104-31.803,22.616c-9.492,7.71-7.184,24.963-6.243,35.389
	c2.316,25.639,23.278,41.51,41.497,56.807c9.892,8.304,5.388,33.335-2.007,41.585c-10.792,12.041-25.554-5.65-35.609-9.866
	c-5.541-2.324-11.722-1.262-15.895,2.508c-4.005-5.865-8.285-11.498-15.127-14.203c-10.076-3.984-21.914-0.343-31.816-4.784
	c-9.751-4.373-15.529-14.549-25.593-18.628c-8.004-3.243-18.838-0.241-27.088,0.171c-15.047,0.751-24.257-10.29-37.382-15.496
	c-11.664-4.628-24.484-5.72-36.791-3.53c-12.437,2.212-23.649,9.144-32.178,18.293c-4.577,4.909-8.212,10.44-10.714,16.656
	c-2.903,7.21-3.572,15.243-5.314,22.77c-1.537,6.641-3.6,15.375-9.802,19.255c-4.791,2.998-11.28,3.808-17.01,4.888
	c-0.584-5.017-2.447-10.115-4.229-13.907C940.436,624.092,933.683,619.69,920.863,620.119z M865.038,791.377
	c10.094-8.398,20.245-15.835,27.777-26.803c7.567-11.019,8.739-25.278,8.388-38.208c-0.517-19.065-3.124-37.502,14.352-50.309
	c8.715-6.386,25.587-5.439,32.107-14.101c0.833-1.106,1.424-2.336,1.853-3.636c4.251-0.982,8.753-1.701,13.062-2.886
	c0.112,0.085,0.206,0.179,0.331,0.258c6.439,4.068,12.545,8.416,17.752,14.011c5.203,5.592,9.042,12.406,12.954,18.914
	c8.947,14.889,20.183,27.971,36.075,35.652c7.796,3.768,16.233,5.692,24.481,8.063c-5.904,8.53-7.85,17.527-8.68,28.43
	c-0.502,6.588-1.14,12.839-4.073,18.846c-2.7,5.528-6.464,10.53-9.457,15.904c-4.828,8.668-7.221,16.937-15.917,22.383
	c-9.752,6.107-19.094,12.155-30.602,14.02c-6.16,0.999-12.557,0.974-18.487,3.058c-5.242,1.843-9.55,5.459-13.464,9.289
	c-3.594,3.517-6.849,7.163-11.399,9.469c-5.3,2.687-9.407,0.011-12.969-3.843c-7.781-8.416-13.671-15.843-26.066-16.395
	c-11.865-0.527-21.579,10.912-33.384,8.318c-8.622-1.894-15.089-9.056-23.163-12.58c1.703-3.796,2.29-7.615,2.529-12.174
	C849.653,805.335,856.516,798.467,865.038,791.377z M590.198,1236.342c-12.554-8.253-3.974-22.341-13.362-31.982
	c-4.712-4.838-9.998-8.269-15.67-11.898c-11.84-7.576-11.985-17.842-10.819-30.412c1.194-12.864,3.894-26.67-3.156-38.275
	c-6.133-10.096-23.336-13.097-33.118-17.641c-16.094-7.476,9.073-32.466,14.694-40.848c10.466-15.61,22.786-29.849,37.765-41.301
	c10.186-7.786,18.856-2.631,23.133,7.357c1.297,3.031,3.277,8.841,6.925,9.844c4.035,1.11,8.131-1.129,11.451-3.069
	c2.784-1.625,5.308-3.858,8.009-5.635c5.348-3.517,13.449-2.916,19.594-3.075c12.338-0.319,26.507,1.113,38.128-3.949
	c13.547-5.9,22.336-18.884,28.972-31.596c8.4-16.094,7.842-37.318,27.385-44.979c12.965-5.081,23.558-10.486,34.482-19.388
	c10.448-8.514,14.047-17.373,16.383-30.307c1.594-8.824,8.526-12.977,14.303-18.811c6.219-6.28,9.767-15.069,15.691-21.76
	c5.729-6.472,12.822-12.373,20.381-16.51c3.21-1.758,7.093-3.425,10.1-5.898c6.354,1.903,11.599,6.074,17.171,9.429
	c-0.486,1.33-0.396,2.89,0.723,4.256c8.856,10.811,21.466,17.46,30.594,27.971c4.359,5.019,6.567,10.921,11.866,15.244
	c5.302,4.324,11.523,6.195,18.137,7.389c7.552,1.362,12.524,3.124,15.316,10.797c2.336,6.417,4.5,12.021,8.304,17.767
	c2.023,3.055,4.102,6.241,4.494,9.976c0.287,2.733-1.53,5.373-2.617,7.743c-2.531,5.52-2.86,12.024-0.112,17.544
	c6.39,12.827,18.913,20.179,29.546,28.962c4.847,4.002,7.595,8.596,9.856,14.352c1.742,4.438,3.783,8.19,7.863,10.854
	c10.242,6.687,24.244,0.284,33.837-4.27c5.574-2.647,11.028-3.895,17.162-2.808c5.134,0.91,9.821,2.325,15.074,1.562
	c0.012-0.002,0.024-0.005,0.036-0.008c0.058,1.245,0.219,2.506,0.515,3.789c1.797,7.763,9.368,15.131,16.418,18.261
	c3.162,1.404,6.641,2.255,9.357,4.499c4.306,3.555,4.614,9.073,4.639,14.18c0.026,5.132,1.38,9.297,4.373,13.453
	c2.431,3.375,5.695,5.791,7.907,9.356c5.434,8.756,9.611,17.812,16.983,25.234c6.964,7.013,15.675,12.274,24.294,17.054
	c-4.406,1.553-8.827,3.073-13.193,4.714c-15.577,5.857-31.693,11.718-46.361,19.626c-14.033,7.566-26.22,18.147-39.153,27.363
	c-7.183,5.119-23.273,12.646-20.186,24.009c2.287,8.422,12.193,13.821,20.121,15.966c8.545,2.312,17.678,3.035,25.718,6.974
	c2.982,1.461,5.631,3.454,5.545,7.013c-0.061,2.556-10.703,6.769-12.764,8.236c-8.829,6.282-19.243,17.17-16.279,28.803
	c1.581,6.21,6.743,11.072,8.983,17.074c3.395,9.097-6.129,8.462-9.279,14.266c-3.3,6.079-1.157,11.082,1.182,17.064
	c1.879,4.808,0.751,10.631-0.198,15.969c-9.188-1.965-15.514-12.02-25.968-11.288c-1.809,0.127-3.573,1.171-4.014,3.058
	c-1.034,4.418-3.717,4.621-7.82,3.914c-4.924-0.849-9.664-2.621-14.539-3.702c-3.985-0.884-8.196-1.278-12.143-0.042
	c-5.656,1.77-9.315,7.157-12.701,11.638c-2.669,3.533-11.121,11.096-13.794,3.741c-1.115-3.067-0.375-6.591,0.105-9.689
	c0.73-4.705,1.695-9.374,2.578-14.051c2.034-10.772,6.613-27.575-1.265-37.007c-2.976-3.563-8.957-3.925-13.117-3.012
	c-5.103,1.119-13.321,7.67-17.259,1.56c-2.652-4.116-2.918-9.956-4.513-14.535c-1.934-5.557-5.574-9.349-10.61-12.261
	c-4.863-2.813-10.476-3.462-15.396-0.578c-4.647,2.725-5.535,8.641-5.907,13.488c-0.505,6.589-1.103,13.05-0.542,19.663
	c0.721,8.497,2.573,16.838,2.996,25.372c0.056,1.146,0.052,2.291,0.024,3.435c-3.595,1.703-7.461,2.719-10.422,5.581
	c-3.879,3.749-3.356,10.329-1.418,14.844c2.178,5.077,7.54,10.266,4.73,16.082c-2.7,5.591-9.455,9.149-13.026,14.316
	c-7.337,10.616-5.992,24.797-12.879,35.594c-2.809,4.406-7.746,6.29-12.606,7.399c-4.043,0.923-6.955,0.35-9.674-1.005
	c0-0.431,0-0.861,0-1.29c0.001-3.885-4.345-4.943-6.756-3.208c-0.109-0.078-0.214-0.155-0.324-0.234
	c-12.013-8.62-29.729-2.457-39.413-15.051c-7.102-9.237-6.61-22.003-11.403-32.277c-5.551-11.896-20.27-16.359-27.301-27.185
	c-3.298-5.08-4.585-11.027-8.357-15.871c-3.449-4.432-7.849-7.645-12.936-9.973c-9.341-4.275-19.781-5.397-29.556-8.313
	c-12.712-3.793-24.692-9.659-37.448-13.344c-12.112-3.499-24.777-4.808-36.896-8.342c-4.868-1.419-12.056-4.795-18.004-4.837
	c-0.217-4.559-0.634-9.573-2.848-11.787C602.557,1242.32,595.341,1239.723,590.198,1236.342z M718.663,1560.209
	c-1.586-2.871-3.376-5.344-4.563-8.457c-1.812-4.756,2.686-10.564,4.585-14.617c9.043-19.302-14.605-37.157-30.823-23.577
	c-19.014,15.922-4.677,42.894-7.746,63.379c-1.749,11.677-17.289,18.406-22.705,28.828c-4.536,8.73-8.043,14.362-19.018,14.495
	c-6.945,0.085-13.975-1.838-20.906-0.669c-14.28,2.408-23.194,11.887-34.459,20.116c-10.771,7.87-19.462,1.243-27.944-6.139
	c-6.504-5.661-15.896-4.875-22.183-10.453c-5.304-4.707-6.577-13.642-9.557-19.789c-2.703-5.578-5.914-10.214-10.368-14.501
	c-4.999-4.812-11.359-8.13-16.596-12.684c-6.05-5.262-7.58-16.465-11.903-23.297c-3.157-4.99-8.299-8.561-12.842-12.163
	c-7.42-5.885-9.137-10.44-7.027-19.248c3.076-12.844-2.474-19.194-9.348-29.084c-16.918-24.348,31.739-19.572,44.306-21.473
	c21.54-3.257,51.111-15.606,51.813-40.886c0.082-2.957-2.703-4.399-5.27-4.014c-2.189,0.327-4.525,0.769-6.048,2.626
	c-3.702,4.51-3.796,4.996-10.64,3.306c-9.996-2.469-16.712-4.648-26.838-0.813c-25.849,9.788-50.15,11.82-75.129-1.831
	c-10.956-5.988-21.179-11.52-24.021-24.442c-1.15-5.226-0.339-10.859,0.969-15.944c2.326-9.043,9.862-10.746,17.575-12.993
	c6.395-1.863,10.999-6.087,13.514-12.22c2.197-5.356,3.72-10.969,6.422-16.11c3.641-6.93,15.273-3.427,21.198-4.084
	c17.848-1.98,16.045-29.839,33.933-31.126c11.938-0.859,23.519,14.861,32.442,21.153c9.159,6.458,18.718,6.19,27.4-0.69
	c6.755-5.353,9.772-19.266,19.081-20.38c4.896-0.587,10.969,4.519,15.983,5.417c4.283,0.767,9.156-1.195,13.153-2.384
	c1.308-0.391,2.645-1.495,2.908-2.908c2.801-15.003,4.849-30.516,2.484-45.666c3.345,0.276,7.635,2.217,10.092,2.95
	c6.6,1.971,13.206,3.641,19.948,5.079c7.954,1.697,15.992,3.05,23.813,5.31c8.259,2.387,16.211,5.792,24.232,8.854
	c7.254,2.768,14.584,5.019,22.159,6.716c6.047,1.354,12.236,2.644,17.898,5.236c12.006,5.495,13.132,18.293,21.031,27.514
	c4.001,4.671,9.381,8.207,14.166,12.004c6.149,4.879,9.545,9.68,11.52,17.254c2.799,10.732,4.917,21.874,13.341,29.803
	c11.176,10.521,27.435,5.537,39.319,14.064c0.608,0.437,1.207,0.878,1.801,1.317c-0.036,5.942-0.209,11.892-1.032,17.776
	c-1.092,7.808-4.354,15.012-5.849,22.697c-0.892,4.587-1.207,8.81-0.562,13.429c1.003,7.18,1.131,13.669-0.223,20.833
	c-2.703,14.304-7.839,28.023-6.279,42.811c1.356,12.85,7.844,20.886,17.814,28.326c2.812,2.097,6.891,4.424,7.825,8.051
	c1.431,5.548-7.891,8.966-11.288,10.633c-5.598,2.749-10.594,6.545-13.038,12.435c-2.684,6.468-2.615,13.628-5.007,20.224
	c-1.265,3.49-2.911,7.706-6.327,9.604c-2.673,1.486-6.507,1.537-9.443,2.274c-10.24,2.57-18.356,8.756-22.448,18.573
	c-2.998,7.189-3.987,15.547-12.099,18.786c-9.608,3.835-21.116,2.659-31.535,2.288c-1.293-3.616-3.097-6.937-4.966-10.446
	c-4.016-7.542-1.277-15.825-2.806-23.864c-1.67-8.777-5.356-16.449-3.617-25.617c1.195-6.297,3.535-12.029,3.984-18.49
	C723.242,1568.755,720.776,1564.029,718.663,1560.209z M809.614,2057.992c-13.665,0.266-29.538,3.834-34.053-13.215
	c-1.87-7.065-0.896-13.499-4.34-20.216c-4.862-9.482-5.751-17.821-6.579-28.233c-1.019-12.826-8.379-24.567-14.351-35.582
	c-4.762-8.783-8.484-17.335-8.859-27.456c-0.389-10.496,2.433-21.328,2.526-31.922c0.147-16.815-3.38-31.279-10.546-46.35
	c-9.023-18.975,1.991-38.017-0.524-57.917c-1.808-14.315-5.86-29.222-10.274-42.976c-3.254-10.138-13.043-31.856,0.092-38.326
	c1.765-0.87,2.229-2.948,1.914-4.703c-1.27-7.057-4.557-13.438-5.256-20.63c-0.618-6.348,3.398-12.901,5.828-18.917
	c4.632-1.814,6.865-6.217,6.827-11.448c11.478,0.411,24.007,1.31,34.336-3.56c9.184-4.329,11.57-12.778,14.809-21.602
	c3.753-10.226,12.55-13.985,22.552-15.924c8.025-1.556,12.325-6.392,15.394-13.827c2.529-6.122,3.278-12.211,4.634-18.62
	c1.794-8.476,9.457-11.051,16.297-14.625c8.223-4.296,13.16-15.005,6.606-22.84c-4.835-5.779-11.435-9.07-16.21-14.314
	c3.321-1.654,6.353-3.754,9.384-6.024c3.372-2.525,8.542-7.471,13.139-5.446c2.724,1.2,6.145,4.702,6.321,7.7
	c0.15,2.556-0.203,4.943,0.192,7.513c0.848,5.526,7.047,9.06,11.866,10.458c5.748,1.668,11.618,2.344,17.333,4.254
	c7.99,2.669,15.136,7.91,21.577,13.194c8.722,7.156,17.604,13.918,29.274,14.471c5.508,0.261,11.115-0.547,16.606-0.887
	c5.397-0.335,10.992-1.632,16.105,0.813c4.514,2.158,8.456,5.785,12.499,8.676c5.146,3.678,11.12,6.435,17.129,8.363
	c10.396,3.336,22.042,1.376,28.591-7.971c2.946-4.204,5.078-8.724,5.179-13.916c0.029-1.53-0.304-3.092,0.011-4.605
	c0.563-2.713,4.234-5.116,6.408-6.42c4.351-2.612,10.468-1.937,15.147-3.967c5.475-2.378,9.693-7.311,13.842-11.436
	c4.338-4.312,8.152-7.274,14.012-3.445c4.448,2.907,7.417,7.414,12.203,10.023c13.664,7.446,28.937,3.304,43.572,5.293
	c15.01,2.041,28.178,10.644,43.55,11.168c26.17,0.892,47.196-23.619,73.555-18.724c5.345,0.993,9.941,3.941,14.414,6.862
	c5.232,3.414,10.478,6.431,16.357,8.604c4.931,1.824,10.235,2.415,15.463,2.25c3.531-0.112,8.057-1.36,11.44,0.095
	c5.4,2.321,7.848,10.561,8.445,15.726c0.948,8.182-1.22,16.538-1.4,24.721c-0.168,7.644,1.722,15.476,3.563,22.836
	c2.049,8.196,5.74,16.97,5.37,25.505c-0.228,5.253-0.873,9.852,0.305,15.071c1.752,7.77,6.621,14.204,10.11,21.215
	c5.061,10.171,11.492,19.694,16.183,30.069c1.595,3.527,3.41,7.911,1.595,11.621c-2.34,4.783-6.036,8.99-9.409,13.055
	c-6.333,7.633-12.78,15.069-18.677,23.056c-3.403,4.609-6.712,9.283-10.77,13.352c-4.432,4.443-7.571,4.352-10.925-1.094
	c-7.997-12.986-0.232-29.365-10.063-41.809c-8.337-10.552-19.049-13.141-31.717-9.597c-10.739,3.006-23.444,10.962-34.267,4.576
	c-10.021-5.911-17.332-15.295-29.519-16.775c-4.778-0.581-9.845,0.759-14.476,1.767c-6.834,1.489-13.537,2.231-20.499,2.749
	c-4.722,0.351-9.548,1.003-13.859,3.075c-5.774,2.773-9.528,7.312-13.59,12.099c-9.069,10.686-12.04,25.19-18.486,37.367
	c-7.048,13.313-14.853,26.937-18.168,41.756c-1.028,4.599-1.076,9.352-2.015,13.962c-2.386,0.233-3.582,2.196-3.563,4.166
	c-0.541,0.491-0.943,1.205-1.102,2.176c-0.022,0.135-0.038,0.272-0.06,0.408c-2.184,1.137-4.805,1.32-7.138-0.015
	c-3.719-2.127-7.23-5.466-11.816-5.432c-5.349,0.04-11.073,3.37-13.707,8.03c-2.757,4.875,0.82,10.58-2.25,15.264
	c-3.873,5.908-10.771,8.469-17.117,10.687c-5.594,1.955-11.044,4.041-15.946,7.43c-6.464,4.471-12.579,9.548-18.771,14.384
	c-12.787,9.983-25.58,19.952-39.218,28.762c-13.429,8.676-27.887,15.733-41.624,23.93c-12.748,7.606-25.775,14.34-40.259,17.919
	c-18.74,4.63-45.618,12.685-53.079,32.848c-1.932,5.22-2.197,10.544-0.112,15.752c2.301,5.744,6.812,10.193,5.842,16.856
	c-1,6.869-6.641,12.645-9.91,18.528c-2.596,4.672-4.426,9.714-6.806,14.491C822.693,2059.345,817.144,2057.846,809.614,2057.992z
	 M858.975,2257.653c-10.655-23.662-13.34-49.448-20.977-74.138c-5.409-17.487-14.134-33.944-20.034-51.309
	c-1.42-4.182-2.644-8.421-3.629-12.726c-1.522-6.654,0.026-6.88,6.631-8.908c9.631-2.958,13.959-8.756,14.607-18.616
	c0.605-9.213-0.085-17.11-3.066-22.969c3.127-5.498,5.286-11.486,8.19-17.103c3.343-6.469,8.065-11.836,10.356-18.871
	c1.873-5.752,0.523-11.719-2.084-16.96c-3.015-6.064-6.191-10.419-3.205-17.393c4.384-10.238,16.123-16.159,25.844-20.16
	c10.789-4.441,22.284-6.371,33.206-10.333c14.207-5.156,27.035-13.206,39.951-20.907c13.926-8.302,28.306-15.375,41.673-24.648
	c12.819-8.892,24.966-18.725,37.285-28.286c5.692-4.417,11.285-9.185,17.83-12.288c5.677-2.692,11.866-4.113,17.531-6.885
	c5.377-2.632,9.535-6.899,12.78-11.85c3.354-5.118-1.501-13.037,4.057-16.271c4.938-2.872,7.966,0.943,12.263,3.403
	c2.857,1.635,6.179,1.909,9.369,1.303c-2.355,29.516,5.413,58.992-1.067,88.427c-3.265,14.836-11.673,28.021-15.796,42.612
	c-3.04,10.764,0.892,18.567,6.152,27.66c2.932,5.067,5.248,10.296,5.522,16.201c0.298,6.426-1.565,12.836-3.582,18.862
	c-4.217,12.592-10.905,24.229-16.538,36.207c-6.46,13.738-10.719,28.102-19.784,40.532c-5.571,7.637-12.307,12.812-13.435,22.748
	c-0.706,6.218-0.495,12.538-0.771,18.787c-0.286,6.449-0.319,12.966,1.568,19.2c3.618,11.958,14.757,15.965,26.131,15.467
	c5.052-0.221,11.345-1.654,15.965,0.986c4.366,2.493,2.629,4.899-0.579,6.71c-7.659,4.323-16.668,4.94-24.008,10.02
	c-9.285,6.424-11.295,16.772-2.323,24.391c8.763,7.439,21.759,10.671,33.048,10.511c12.098-0.171,24.051-3.025,36.079-4.084
	c9.421-0.831,21.05-1.043,27.206,7.458c7.221,9.971,8.09,24.662,8.883,36.484c0.807,12.02,0.502,24.064,0.476,36.101
	c-10.031,2.513-17.878,8.006-24.326,16.514c-3.6,4.749-7.056,9.992-11.827,13.663c-5.137,3.954-11.55,5.79-17.302,8.615
	c-5.357,2.63-9.461,6.78-12.596,11.797c-2.918,4.668-2.13,10.915-2.44,16.121c-0.447,7.54-8.361,5.677-13.322,5.079
	c-6.19-0.748-12.332,1.473-17.784,4.211c-4.887,2.455-9.208,5.96-13.865,8.805c-5.4,3.3-11.448,4.602-17.599,5.742
	c-11.448,2.124-21.904,3.75-32.192,8.881c-2.848-4.237-6.826-7.453-12.601-10.016c-7.295-3.238-14.721-5.929-21.585-10.072
	c-7.705-4.651-14.13-11.396-18.827-19.037c-7.504-12.208-14.792-24.881-25.091-35.003c-10.16-9.985-23.258-15.74-36.829-19.421
	C887.551,2311.879,864.075,2268.981,858.975,2257.653z M1028.025,2660.352c-10.35-17.713-22.929-34.007-32.614-52.127
	c-10.015-18.738-12.629-39.806-18.518-59.893c-5.486-18.718-16.341-35.44-22.242-54.079c-5.418-17.12-11.852-33.552-21.665-48.671
	c-11.88-18.304-25.237-35.531-36.27-54.401c-4.625-7.911-6.27-17.423-9.969-25.795c-3.528-7.986-11.016-13.734-11.784-22.562
	c1.342-0.645,2.509-1.441,3.495-2.39c11.72,3.011,22.989,7.398,32.306,15.309c8.282,7.031,14.317,16.246,20.05,25.355
	c7.095,11.275,13.565,21.821,24.438,29.902c9.395,6.981,20.789,9.598,30.817,15.301c7.72,4.389,8.791,15.655,10.41,23.471
	c1.253,6.052,2.088,12.064,5.289,17.472c3.062,5.175,8.217,7.513,13.762,9.048c6.452,1.786,10.67,4.358,12.25,11.374
	c1.353,6.014-0.589,12.994-0.426,19.121c0.33,12.421,5.47,23.188,12.099,33.439c8.079,12.491,17.165,24.151,19.246,39.33
	c1.234,9.001,1.067,18.105,2.325,27.109c1.284,9.196,5.622,15.955,10.514,23.561c9.136,14.203,3.293,31.022-2.062,45.635
	c-4.53,12.363-9.768,24.615-11.537,37.562C1046.32,2696.647,1038.296,2677.927,1028.025,2660.352z M1319.545,2324.606
	c-1.982,6.781-6.662,29.492-18.353,24.257c-3.709-1.661-7.095-4.467-11.45-3.726c-9.687,1.649-13.337,11.311-13.943,20.153
	c-0.357,5.198,0.95,12.242,3.388,16.839c4.177,7.874,10.418,11.656,8.753,21.696c-2.615,15.779,1.729,29.434,2.145,45.279
	c0.464,17.75-0.979,35.565-0.678,53.353c0.15,8.908,0.85,18.178-0.795,26.979c-2.349,12.571-12.696,5.954-20.228,5.905
	c-9.413-0.061-18.515,9.556-24.566,15.638c-10.566,10.622-8.039,22.624-8.483,36.504c-0.365,11.409-13.38,24.796-4.579,35.362
	c3.365,4.039,12.802,7.706,5.254,11.789c-5.084,2.75-11.655,3.508-17.268,4.438c-9.844,1.633-19.729,1.879-29.429,4.335
	c-15.002,3.799-28.367,12.592-38.562,24.073c-12.648,14.244-11.419,36.709-27.975,47.372c-5.899,3.798-13.294,5.502-18.713,10.071
	c-6.085,5.131-10.03,13.778-17.79,16.698c-8.222,0.268-15.097-8.266-20.54-16.402c-1.443-29.449,21.877-54.457,18.777-84.036
	c-0.534-5.094-2.469-9.67-5.076-14.03c-4.151-6.944-8.368-12.637-10.05-20.769c-3.019-14.602-0.661-29.372-6.645-43.472
	c-4.886-11.51-12.791-21.228-19.21-31.864c-3.08-5.104-5.493-10.452-6.901-16.253c-1.607-6.617-0.892-13.525-0.411-20.226
	c0.838-11.641-4.131-22.101-15.787-25.579c-6.609-1.972-11.104-3.313-13.527-10.444c-2.162-6.362-2.895-13.382-4.478-19.921
	c-0.401-1.658-0.856-3.207-1.359-4.677c11.97-6.003,24.586-6.717,37.616-9.788c12.904-3.042,21.788-13.779,34.547-16.814
	c5.469-1.301,11.016,1.669,16.455,0.359c5.087-1.225,8.908-5.859,10.366-10.713c1.433-4.777,0.131-9.871,1.623-14.704
	c2.046-6.623,10.578-9.769,16.261-12.177c5.684-2.409,11.1-5.231,15.456-9.699c4.123-4.228,7.388-9.179,11.052-13.785
	c8.847-11.122,21.75-12.683,35.146-13.637c6.109-0.435,12.196-1.321,17.844-3.8c6.934-3.044,11.783-8.193,17.473-13.008
	c2.947-2.494,6.821-4.687,10.697-5.056c3.018-0.287,5.88-0.245,8.802-1.167c5.272-1.662,9.936-7.279,13.057-11.597
	c2.518-3.484,4.26-7.472,6.634-11.052c3.205-4.838,8.325-6.932,13.682-8.512c13.857-4.085,28.022-5.086,41.146-11.462
	C1318.541,2284.382,1325.233,2305.155,1319.545,2324.606z M1691.236,1776.672c-5.447,6.902-13.343,11.635-20.344,16.765
	c-12.126,8.885-22.216,20.571-34.13,29.869c-12.155,9.485-26.926,18.823-36.565,30.996c-3.283,4.146-5.18,9.004-6.909,13.938
	c-3.076,8.774-9.604,15.225-16.506,21.12c-7.516,6.421-14.88,10.461-24.835,10.687c-4.044,0.092-8.788,1.793-10.873,5.542
	c-3.614,6.497-4.569,12.368-12.017,15.978c-5.759,2.792-10.463,6.219-15.268,10.451c-11.432,10.071-14.469,24.304-16.204,38.783
	c-2.995,24.975-22.823,30.015-43.668,36.058c-15.831,4.59-32,8.399-47.144,15.019c-12.069,5.276-18.976,14.257-25.354,25.361
	c-5.245,9.129-11.106,14.175-22.027,14.391c-6.845,0.135-13.009,3.081-18.771,6.486c-3.519,2.078-11.362,5.208-13.424,8.727
	c-2.927,4.999-4.698,12.976-5.727,18.651c-1.176,6.485-2.815,13.86-3.137,20.444c-0.544,11.077,1.178,21.314-2.848,31.976
	c-2.134,5.648-2.002,10.538-0.433,16.247c2.699,9.821,5.343,16.017,2.418,26.33c-3.539,12.475-11.052,22.494-10.307,35.758
	c0.443,7.898,0.369,14.887-0.654,22.816c-0.439,3.406-0.91,7.01-0.506,10.461c-0.004,0.002-0.01,0.003-0.014,0.005
	c-14.705,7.582-31.608,6.872-46.577,13.343c-10.827,4.68-13.317,13.904-20.029,22.49c-1.835,2.347-4.119,4.037-6.406,5.9
	c-2.691,2.191-6.897,1.263-10.094,1.839c-6.931,1.247-12.6,5.914-17.656,10.539c-5.736,5.247-11.245,8.693-18.962,10.254
	c-5.635,1.14-11.481,1.186-17.231,1.75c0.081-20.379,0.877-41.271-4.351-61.135c-2.286-8.683-6.313-16.74-13.952-21.793
	c-8.753-5.788-21.066-4.71-30.924-3.645c-11.859,1.281-23.654,3.973-35.638,3.634c-6.335-0.179-33.337-7.055-25.39-16.808
	c5.814-7.135,17.052-8.151,25.02-11.704c7.091-3.162,12.022-9.771,7.13-17.14c-6.683-10.069-19.092-6.814-29.281-6.847
	c-16.272-0.054-15.45-17.891-14.924-29.619c0.263-5.885-0.255-11.958,1.085-17.736c0.924-3.989,4.011-6.891,6.599-9.875
	c9.904-11.423,16.288-24.866,21.606-38.911c8.482-22.402,26.708-44.91,24.501-70.066c-0.969-11.05-9.02-18.59-12.166-28.681
	c-1.8-5.774,0.753-12.206,2.808-17.54c2.772-7.192,5.805-14.25,8.737-21.38c7.031-17.096,8.681-35.619,7.731-53.934
	c-0.954-18.373-3.74-36.651-1.341-54.994c6.129-5.709,5.55-15.099,7.096-23.232c2.897-15.246,12.012-29.057,18.867-42.758
	c6.535-13.059,9.983-26.712,19.945-37.846c8.359-9.342,21.171-7.243,32.416-9.1c5.473-0.904,10.843-2.627,16.386-3.048
	c6.545-0.497,11.415,3.06,16.51,6.648c8.978,6.32,15.967,13.551,27.754,12.478c12.128-1.106,24.204-10.322,36.487-8.479
	c7.583,1.137,13.2,8.444,15.066,15.398c1.929,7.184,0.335,15.156,1.543,22.519c1.524,9.288,9.311,22.444,20.371,19.121
	c0.287-0.087,0.563-0.207,0.845-0.309c-0.197,1.799,0.662,3.643,2.956,4.178c11.415,2.659,15.39,14.389,20.626,23.545
	c2.48,4.337,5.618,8.457,9.505,11.618c4.788,3.894,10.939,5.71,15.213,10.258c5.288,5.628,3.571,13.989,4.622,20.955
	c0.763,5.059,3.329,9.874,6.487,13.811c5.261,6.558,14.046,8.701,22.097,8.895c1.521,1.071,3.701,1.277,5.27-0.115
	c18.627-1.162,36.37-10.051,53.849-15.688c10.974-3.539,19.367-9.287,26.985-17.829c4.488-5.031,8.674-10.12,15.425-12.013
	c5.219-1.463,11.133,0.001,16.462-0.039c8.972-0.067,17.767-4.134,23.05-11.451c5.407-7.487,7.471-16.508,11.15-24.841
	c4.521-10.242,15.161-13.77,21.555-22.345c1.882-2.524,3.337-5.108,4.409-8.067c0.038-0.106,0.074-0.198,0.106-0.281
	c1.478-0.414,3.141-0.43,4.632-0.559c37.28-3.208,77.916,13.696,110.755-8.896
	C1694.139,1772.115,1693.116,1774.29,1691.236,1776.672z M1579.47,1779.146C1579.65,1778.757,1579.659,1778.908,1579.47,1779.146
	L1579.47,1779.146z M1861.174,1559.874c-8.298,9.051-17.928,17.771-17.703,30.98c0.068,3.977,2.187,7.784,4.173,11.085
	c5.042,8.381,6.052,12.578,1.807,22.269c-3.509,8.011-8.826,15.287-14.034,22.253c-4.596,6.147-6.925,13.674-10.942,20.185
	c-6.223,10.085-21.47,6.381-28.699,16.458c-3.928,5.477,0.881,17.025-7.04,20.164c-6.517,2.584-14.378,3.632-21.182,5.944
	c-10.396,3.534-18.419-1.721-26.798-6.421c-2.447-1.372-5.774-1.505-8.23-0.066c-2.476,1.451-3.797,4.682-4.058,7.384
	c-0.892,9.234,2.221,16.501-7.421,22.243c-7.961,4.74-21.705,13.195-24.313,22.673c-0.358,1.3-0.58,2.526-0.739,3.709
	c-0.388,0.173-0.772,0.39-1.138,0.71c-22.402,19.514-52.44,14.705-79.601,11.901c-12.388-1.278-24.799-1.915-37.173-0.11
	c-3.007,0.439-5.187,2.062-6.345,4.85c-2.112,5.086-4.973,8.278-9.253,11.897c-4.93,4.168-10.213,7.763-13.855,13.188
	c-3.307,4.925-5.095,10.947-7.116,16.467c-2.07,5.65-4.449,11.158-8.763,15.468c-4.882,4.876-12.358,5.249-18.788,4.855
	c-5.072-0.311-9.908-0.537-14.86,0.852c-6.564,1.84-11.617,6.776-15.988,11.729c-3.277,3.713-6.524,7.58-10.484,10.595
	c-4.898,3.73-10.72,5.85-16.504,7.76c-13.99,4.623-27.527,10.482-42.004,13.535c-0.666,0.14-1.339,0.27-2.016,0.394
	c7.712-13.48,14.267-27.609,22.817-40.615c10.434-15.873,19.913-32.212,29.925-48.334c8.258-13.297,14.417-27.035,13.688-42.986
	c-0.772-16.904-9.121-32.039-11.554-48.507c8.094-1.355,16.48-0.438,24.643-0.966c7.168-0.464,15.648-3.324,14.084-12.193
	c-2.297-13.023-16.115-20.988-20.725-33.05c-3.005-7.863-1.051-14.906-0.421-22.876c0.488-6.176-4.031-9.699-7.065-14.141
	c5.852-1,11.28-2.633,16.78-5.645c3.393-1.857,4.868-4.533,5.865-8.184c0.276-1.016,0.413-3.4,1.537-3.835
	c2.499-0.965,6.098-0.114,8.708-0.043c7.699,0.209,16.688-4.349,22.915-8.556c6.258-4.229,11.08-10.071,15.214-16.316
	c11.04-16.678,18.507-35.864,26.497-54.104c8.442-19.273,18.443-37.119,33.745-51.668c0.259,0.298,0.539,0.599,0.847,0.901
	c6.677,6.536,20.087,2.584,28.183,2.115c17.066-0.986,34.289,0.644,51.218,2.68c7.859,0.944,15.862,1.143,23.666,2.435
	c7.348,1.217,12.369,5.532,18.156,9.839c5.432,4.042,11.741,6.982,18.569,5.093c6.643-1.837,10.842-8.244,17.204-10.654
	c7.313-2.771,13.329,4.848,18.536,8.616c6.728,4.868,13.55,5.43,21.651,5.366c19.443-0.153,27.564,21.188,44.273,27.332
	c6.185,2.275,13.303,0.567,19.691,2.498c5.532,1.672,8.906,7.293,12.048,12.232
	C1873.288,1542.631,1867.874,1552.565,1861.174,1559.874z M2019.762,1157.249c-4.158-5.256-8.781-8.875-14.717-11.99
	c-4.598-2.413-9.479-2.083-14.451-1.654c-9.359,0.808-11.347-3.794-16.615-9.967c-14.641-17.154-41.302,2.58-37.453,22.27
	c1.746,8.931,1.579,13.978-1.488,22.674c-1.833,5.201-1.797,9.436-0.122,14.65c4.146,12.906,18.995,19.507,29.945,25.045
	c6.663,3.37,9.474,4.975,4.443,11.432c-1.896,2.436-3.527,5.014-5.535,7.38c-3.206,3.778-11.982,3.667-16.527,4.679
	c-9.806,2.183-14.29,9.334-15.85,18.774c-2.026,12.255,3.931,25.131,10.176,35.277c3.383,5.495,8.194,9.757,13.052,13.904
	c9.843,8.4,13.294,16.391,13.254,29.321c-0.051,16.208,1.884,29.624,7.229,45.065c6.056,17.495,14.326,34.12,20.189,51.697
	c5.678,17.028,11.03,35.501,13.353,53.231c1.526,11.648,0.721,18.228-6.428,27.399c-3.074,3.942-6.977,7.949-11.666,9.885
	c-3.797,1.568-4.31-5.124-5.123-6.969c-2.783-6.314-7.884-13.269-15.676-9.412c-4.643,2.297-8.483,5.874-12.728,8.804
	c-13.142,9.075-9.45-7.083-10.164-13.46c-0.262-2.35-1.699-4.037-4.164-4.164c-9.669-0.499-10.678,9.906-11.396,17.329
	c-1.289,13.316-27.985,42.163-38.646,24.031c0.669-1.088,0.746-2.472-0.287-3.883c-3.297-4.5-6.087-9.379-9.829-13.539
	c-4.168-4.632-10.067-6.599-16.063-7.422c-4.743-0.651-10.075,0.356-14.519-1.676c-6.97-3.185-12.533-10.196-18.15-15.24
	c-5.135-4.614-10.866-8.63-17.473-10.78c-0.413-0.135-0.829-0.247-1.249-0.349c-0.009-0.112,0-0.217-0.017-0.332
	c-2.454-16.051,1.007-32.305-1.48-48.3c-1.67-10.733-8.998-18.426-15.804-26.317c-4.058-4.703-7.092-8.895-8.518-15.004
	c-1.485-6.364-1.04-13.309,0.224-19.66c1.156-5.805,3.387-11.363,7.464-15.714c4.937-5.269,11.222-8.917,15.812-14.577
	c3.469-4.278,6.109-9.087,10.578-12.486c5.193-3.95,10.912-6.623,15.501-11.397c4.493-4.673,7.749-10.399,12.125-15.186
	c4.078-4.462,9.487-7.55,13.802-11.786c2.735-2.686,4.384-6.01,5.693-9.56c2.405-6.519,4.25-13.108,6.871-19.579
	c2.492-6.152,3.877-12.396,1.867-18.854c-2.045-6.564-7.555-11.866-8.473-18.8c-1.067-8.065,5.496-14.733,5.9-22.677
	c0.228-4.486-0.425-8.851-0.44-13.314c-0.015-4.503,5.032-7.8,8.557-9.671c6.74-3.578,9.771-6.691,10.371-14.723
	c0.826-11.095-5.494-22.662-9.708-32.837c5.598-12.88,16.72-23.886,22.724-36.516c2.633-5.537,2.688-11.328,1.762-17.179
	c0.232-0.01,0.464-0.02,0.71-0.067c5.86-1.143,11.693-7.669,17.724-4.927c5.344,2.43,8.901,6.724,15.219,6.557
	c5.721-0.153,10.482-4.9,14.79-8.072c5.293-3.898,13.719-3.748,19.999-3.031c0.166,0.018,0.311,0.004,0.466,0.006
	c10.515,7.408,21.134,15.195,31.995,22.027c4.038,2.539,9.494,5.065,14.319,5.37c3.247,0.206,6.377-0.228,9.473-0.809
	c4.529,10.124-3.938,21.102-4.205,31.64c-0.259,10.22,5.478,19.285,7.047,29.186
	C2030.836,1163.272,2024.619,1163.389,2019.762,1157.249z M2211.795,1240.669c-13.549,3.088-31.002-0.329-44.717-1.156
	c-7.135-0.432-13.438,0.512-20.086,3.087c-8.771,3.398-14.742,3.196-22.697-1.811c-11.624-7.314-20.532-8.284-34.301-7.903
	c-8.516,0.235-14.745,0.94-20.409-6.197c-2.846-3.586-5.912-6.754-8.481-10.592c-2.328-3.479-1.568-10.612-1.942-14.872
	c-0.557-6.361-5.701-11.201-7.954-16.929c-1.901-4.833-2.198-10.027-3.524-15.04c0.492,0.21,1.059,0.333,1.71,0.328
	c12.608-0.1,25.044-1.291,37.659-0.458c13.772,0.912,27.521,2.149,41.271,3.33c12.936,1.112,25.878,2.165,38.841,2.924
	c6.413,0.376,12.832,0.639,19.254,0.815c5.505,0.152,10.743,0.224,15.767,2.746c8.196,4.114,13.93,11.771,22.41,15.711
	c7.9,3.67,16.756,4.987,25.013,7.681c3.512,1.145,7.094,2.533,9.707,5.229c2.843,2.933-0.834,6.525-2.812,8.513
	c-4.568,4.595-12.935,11.328-19.841,11.058c-1.736-0.068-2.899,0.759-3.512,1.912
	C2224.523,1226.068,2219.056,1239.014,2211.795,1240.669z M2212.813,1402.361c-6.865,7.674-12.765,10.696-22.721,12.409
	c-4.07,0.702-8.638,3.383-10.719,7.037c-9.16,16.082-26.985,12.089-41.011,4.68c-6.408-3.385-12.321-8.251-16.27-14.356
	c-2.081-3.216,3.983-6.644,5.046-9.563c2.514-6.904,1.053-15.469,8.33-20.086c5.184-3.289,11.782-4.053,17.158-7.511
	c12.827-8.25,23.106-20.234,33.476-31.23c11.811-12.526,24.996-24.487,38.913-34.635c3.715-2.708,7.577-5.419,10.973-8.519
	c1.031,8.171,4.646,15.807,7.887,23.923c5.77,14.445,2.962,31.077,2.71,46.335c-0.095,0.089-0.191,0.177-0.282,0.28
	C2236.057,1382.692,2223.019,1390.95,2212.813,1402.361z M2297.524,1474.671c-7.193-5.606-5.875-18.331-6.359-26.315
	c-0.731-12.037-5.502-21.65-12.851-30.97c-5.528-7.01-10.928-13.825-15.616-21.451c-4.21-6.848-4.554-14.76-8.35-21.577
	c0.326-0.567,0.537-1.24,0.541-2.052c0.074-14.47,2.587-30.015-1.026-44.206c-3.001-11.79-11.08-22.058-9.753-34.393
	c4.257,0.442,8.584,1.885,12.852,2.428c5.486,0.697,11.043,0.734,16.548,0.275c10.042-0.836,20.263-3.807,28.272-10.108
	c0.991-0.78,1.928-1.606,2.821-2.469c1.649,3.5,3.685,6.807,4.967,10.483c1.998,5.734-0.125,12.057,1.426,17.95
	c2.403,9.126,11.487,14.033,15.304,22.272c-6.165,10.802-2.324,27.908-1.846,39.25c0.77,18.321-0.111,36.026-1.808,54.261
	c-1.44,15.471,1.826,30.113,2.409,45.454C2325.549,1486.432,2300.952,1477.343,2297.524,1474.671z M2420.174,1220.441
	c0.122,10.56,3.204,20.579-5.362,29.024c-7.667,7.558-14.584,14.152-9.553,25.55c5.332,12.079-2.237,17.83-10.365,24.991
	c-4.323,3.81-5.971,9.362-7.177,14.775c-2.364,10.6-9.252,9.381-17.563,5.929c-5.972-2.48-11.073-4.074-17.557-3.627
	c-7.754,0.533-15.24,5.048-20.848,10.669c-3.785-5.554-8.944-10.001-12.112-16.074c-2.678-5.132-0.575-12.209-1.61-17.83
	c-1.089-5.908-5.227-10.646-7.031-16.285c-0.132-0.41-0.318-0.757-0.524-1.076c3.189-5.229,5.097-11.212,5.609-17.489
	c0.531-6.514-5.819-12.117-4.46-18.551c1.12-5.302,8.135-10.058,11.351-14.236c3.217-4.18,4.081-8.749,3.925-13.458
	c6.262-0.063,12.685-1.503,18.602-3.022c8.74-2.243,14.866-6.9,21.973-12.204c4.307-3.214,8.754-4.806,14.154-4.829
	c5.343-0.023,9.167,0.255,14.062-2.306c5.201-2.722,9.337-6.046,15.195-7.448c4.55-1.089,9.318-0.56,13.813,0.654
	c-1.015,5.057-1.433,10.345-1.48,16.014C2423.157,1206.713,2420.092,1213.22,2420.174,1220.441z M2449.63,1135.07
	c-1.925,10.587-9.015,18.143-15.156,26.468c-3.404,4.614-5.839,9.249-7.562,14.039c-8.755-2.303-17.593-1.697-26.042,2.057
	c-5.522,2.454-9.506,7.14-15.891,6.948c-4.934-0.148-9.511-0.135-14.217,1.573c-8.368,3.039-13.851,10.831-22.181,13.924
	c-6.919,2.57-15.109,4.503-22.735,4.352c-0.841-4.473-1.904-8.942-2.11-13.207c-0.362-7.477,4.448-14.761,8.348-20.799
	c4.091-6.335,7.703-12.176,10.736-19.107c2.777-6.343,6.97-11.16,12.107-15.734c5.287-4.707,10.989-7.781,14.863-13.953
	c3.439-5.48,1.822-13.38,6.033-18.225c4.522-5.202,12.48-5.481,18.743-6.837c11.034-2.388,16.547-9.09,22.159-18.247
	c3.335-5.443,7.375-8.26,13.142-10.681c2.533-1.064,4.957-2.166,7.249-3.502c0.3,14.031,4.873,27.973,12.676,40.031
	c-0.053,1.547,0.015,3.224,0.227,5.084C2451.026,1118.1,2451.234,1126.247,2449.63,1135.07z M2573.435,964.087
	c2.01,3.698,3.754,7.399,5.008,11.425c3.965,12.724-10.81,4.079-12.565,3.391c-6.442-2.525-12.749-1.377-19.292,0.188
	c-13.711,3.278-29.557,3.913-42.133,10.539c-9.49,5.001-6.01,18.08-3.017,25.687c4.844,12.313-6.25,12.056-13.81,15.03
	c-4.054,1.595-8.318,4.631-10.94,8.168c-3.4,4.586-5.444,9.397-5.848,15.185c-0.667,9.564,3.66,30.434-8.147,34.985
	c-4.024,1.551-7.015,3.267-9.109,5.447c-12.564-23.956-10.384-52.033,8.825-72.696c8.479-9.121,14.32-17.69,17.392-29.886
	c1.455-5.778,2.813-11.161,5.144-16.671c2.523-5.964,5.133-11.903,6.448-18.272c1.637-7.926-0.039-16.848-8.263-20.061
	c-7.103-2.775-15.558-0.746-22.585,1.253c-18.345,5.219-35.232,14.897-52.196,23.376c-12.575,6.287-24.147,13.859-35.468,22.18
	c-5.668,4.166-11.592,8.169-16.52,13.216c-5.006,5.126-9.016,11.201-13.51,16.758c-4.922,6.085-9.514,10.753-17.593,11.546
	c-7.454,0.733-12.458,3.308-18.347,7.884c-8.886,6.904-18.323,12.014-28.808,14.049c1.863-3.24,1.542-6.628-2.155-10.048
	c-7.813-7.229-18.743-4.853-28.436-4.094c-6.746,0.528-14.311,1.402-21.059,0.381c-2.493-0.376,1.367-22.277,0.903-25.657
	c-1.158-8.438-5.213-16.028-5.877-24.552c-0.666-8.567,6.377-13.166,12.885-16.782c9.173-5.097,21.141-9.083,25.911-19.189
	c2.032-4.304,2.222-9.37,2.467-14.034c0.487-9.255,7.816-7.081,14.263-9.546c12.416-4.748,22.052-16.287,31.437-25.18
	c20.858-19.765,56.727-29.77,62.213-61.044c0.674-3.846,1.326-6.321,4.089-9.542c1.003-1.17,17.514-9.927,17.51-5.865
	c-0.006,4.751-0.939,9.488-0.209,14.236c1.407,9.163,7.451,9.985,15.537,8.131c5.499-1.261,10.303-3.389,15.981-3.93
	c5.661-0.538,11.169-0.878,16.698-2.28c3.627-0.919,7.366-3.362,9.277-6.623c3.273-5.588-0.24-16.47,5.229-20.493
	c4.177-3.071,7.643-3.814,10.817-8.138c6.323-8.616,13.369,0.297,20.564,0.034c5.249-0.191,9.711-2.088,14.688-3.643
	c14.437-4.507,5.2,19.312,4.855,24.112c-0.534,7.435-0.43,21.234,8.219,24.629c3.339,1.311,6.493,0.974,9.97,0.447
	c2.201-0.334,4.389-0.961,6.567-1.42c4.218-0.889-3.842,11.98-4.025,12.286c-4.084,6.819-1.105,14.837,5.788,18.066
	c12.407,5.812,23.449-5.833,35.727,4.525c3.575,3.016,6.96,5.566,11.511,6.84c5.914,1.656,16.7-2.804,17.583,7.439
	c1.365,15.841-17.194,26.665-25.519,37.465C2563.548,943.663,2567.745,953.617,2573.435,964.087z"/>
</svg>
